<?xml version="1.0" encoding="UTF-8" standalone="no"?>
<svg width="200px" height="200px" viewBox="0 0 200 200" version="1.1" xmlns="http://www.w3.org/2000/svg" xmlns:xlink="http://www.w3.org/1999/xlink">
    <!-- Generator: Sketch 3.7.2 (28276) - http://www.bohemiancoding.com/sketch -->
    <title>500px</title>
    <desc>Created with Sketch.</desc>
    <defs></defs>
    <g id="Page-1" stroke="none" stroke-width="1" fill="none" fill-rule="evenodd">
        <path d="M100,0 C44.771526,0 0,44.771526 0,100 C0,155.228474 44.771526,200 100,200 C155.228474,200 200,155.228474 200,100 C200,44.771526 155.228474,-2.4158454e-14 100,0 L100,0 L100,0 Z M53.4824144,122.30252 C53.5137347,122.388572 54.2511856,124.422864 54.6785654,125.431064 C57.0244566,130.963668 60.3839867,135.933384 64.6637645,140.202472 C68.940695,144.467868 73.9237561,147.8185 79.4751384,150.160364 C85.2218455,152.585156 91.3250348,153.814592 97.6152916,153.814592 C103.90441,153.814592 110.007599,152.584872 115.755445,150.159796 C121.304549,147.818784 126.287895,144.467868 130.566534,140.2002 C134.844888,135.933384 138.204134,130.962816 140.551733,125.427372 C142.982758,119.694548 144.215355,113.606724 144.215355,107.333448 C144.215355,101.059888 142.982758,94.972064 140.551733,89.239808 C138.204703,83.704648 134.845173,78.73408 130.566534,74.466412 C126.289319,70.19988 121.305973,66.848964 115.755445,64.506816 C110.008168,62.082024 103.904979,60.852588 97.6152916,60.852588 C91.2510049,60.852588 84.8918434,62.116104 79.2248607,64.506816 C74.6950899,66.418136 67.0278784,71.33872 62.5399629,75.955424 L62.513483,75.982404 L62.513483,37.729308 L126.93651,37.72874 C129.280978,37.70318 129.280978,34.437748 129.280978,33.364512 C129.280978,32.291844 129.280978,29.027264 126.929392,29.000568 L57.2710328,29 C55.3747305,29 54.2007884,30.57336 54.2007884,32.031132 L54.2007884,85.874408 C54.2007884,87.611352 56.3701468,88.86578 58.385751,89.295756 C62.3221444,90.134408 63.2315722,88.879412 64.1956683,87.551428 L64.3235121,87.375348 C65.7952818,85.194512 70.3945268,80.577524 70.4406531,80.531516 C77.6181288,73.372444 87.2152408,69.429956 97.4635305,69.429956 C107.662847,69.429956 117.232624,73.372444 124.4101,80.531516 C131.611778,87.715296 135.578068,97.233556 135.578068,107.333448 C135.578068,117.469976 131.632279,126.987952 124.467046,134.134812 C117.393497,141.190224 107.511655,145.236656 97.3559025,145.236656 C90.4771086,145.236656 83.8372032,143.408548 78.1494352,139.94886 L78.1736372,107.209908 C78.1736372,102.844544 80.0730716,98.099188 83.254076,94.515676 C86.891218,90.418976 91.9036063,88.16288 97.3684306,88.16288 C102.660709,88.16288 107.603338,90.166784 111.286322,93.805676 C114.942825,97.418724 116.956436,102.23224 116.956436,107.35986 C116.956436,118.300392 108.331393,126.870376 97.3208807,126.870376 C95.198218,126.870376 91.339556,125.93488 91.1809613,125.896256 C88.9577889,125.235956 88.0119156,128.314516 87.7007056,129.329248 C86.5039851,133.231692 88.3023403,134.005308 88.6750519,134.120896 C92.218233,135.217704 94.5416304,135.425592 97.5893812,135.425592 C113.133081,135.425592 125.778513,122.806052 125.778513,107.295108 C125.778513,91.908556 113.140769,79.390404 97.6067497,79.390404 C89.9996162,79.390404 82.853176,82.290896 77.4843057,87.557392 C72.3714077,92.573116 69.4386879,99.260748 69.4386879,105.904076 L69.4358406,106.06908 C69.4110691,106.897508 69.3948395,126.523896 69.3899991,132.964732 L69.3609566,132.93264 C66.4393413,129.705832 63.5516088,124.766504 61.6370838,119.720108 C60.8865353,117.742332 59.1912524,118.092504 56.8778206,118.803072 C55.8675982,119.113484 52.7930829,120.058068 53.4730183,122.274972 L53.4824144,122.30252 L53.4824144,122.30252 Z M86.5942445,114.610664 C86.6042101,115.551556 87.4675117,116.376576 87.9831578,116.8696 L88.1451692,117.025516 C89.0295409,117.893136 89.8720572,118.333052 90.6488008,118.333052 C91.2920061,118.333052 91.6883503,118.02974 91.8287223,117.899384 C92.218233,117.53842 96.6250004,113.084732 97.0455467,112.659868 L101.959988,117.545804 C102.414987,118.057004 102.909563,118.313172 103.485856,118.329076 C104.270572,118.329076 105.125902,117.8636 106.027642,116.945712 C108.148311,114.785892 107.087122,113.621208 106.574039,113.05832 L101.594679,108.090024 L106.787586,102.873796 C107.926222,101.644644 106.92084,100.338528 105.917736,99.337996 C104.461342,97.885052 103.056199,97.510172 102.155313,98.338032 L96.9920175,103.497176 L91.7703526,98.28748 C91.493595,98.023076 91.1445159,97.883348 90.7609845,97.883348 C90.0651042,97.883348 89.2419495,98.352516 88.3137295,99.278356 C86.7078518,100.879832 86.3636132,101.986864 87.1992959,102.870104 L92.4223845,108.063896 L87.2300468,113.252008 C86.8029517,113.67744 86.5891194,114.134396 86.5942445,114.610664 L86.5942445,114.610664 Z M97.9737668,44.214164 C89.6266198,44.214164 80.7473124,45.894876 74.2235769,48.7096 C73.5262729,48.981956 73.1094281,49.540584 73.017745,50.32556 C72.9320412,51.065948 73.1324912,52.042908 73.6313383,53.314092 C74.0359397,54.345296 75.110511,57.084476 77.1910337,56.292968 C83.8676693,53.752588 91.2484424,52.353604 97.9737668,52.353604 C105.594567,52.353604 112.985306,53.84148 119.941262,56.775768 C125.468157,59.107976 130.683273,62.476784 136.353103,67.377204 C136.766531,67.73476 137.2053,67.915952 137.657167,67.915952 C138.762489,67.915952 139.822824,66.832776 140.729689,65.81776 C142.243599,64.1237 143.283433,62.715628 141.791733,61.30642 C136.377305,56.190444 130.4441,52.368656 123.119704,49.279304 C115.154095,45.918448 106.693625,44.214164 97.9737668,44.214164 L97.9737668,44.214164 Z M142.953147,147.02756 L142.953431,147.02756 C141.948904,146.028448 141.095852,145.43858 140.345304,145.223876 C139.58422,145.005764 138.90457,145.168212 138.379527,145.693328 L137.885521,146.185216 C132.71169,151.346064 126.687087,155.397892 119.978846,158.227952 C113.036842,161.15656 105.66034,162.641596 98.0543454,162.641596 C90.4480661,162.641596 83.0718487,161.15656 76.1301295,158.227952 C69.4224583,155.398176 63.3981393,151.346632 58.2243091,146.1855 C52.8337993,140.809096 48.77184,134.800508 46.1514691,128.326444 C43.5963014,122.013976 42.7617575,117.266064 42.4875625,115.706052 C42.4619368,115.559792 42.4417209,115.444204 42.425776,115.360708 C42.0741344,113.523512 40.3788515,113.395144 37.9424162,113.7669 C36.9293466,113.921396 33.8460046,114.391984 34.1395613,116.604628 L34.1466796,116.65518 C34.9630007,121.77712 36.4048738,126.799376 38.4330062,131.581936 C41.6925961,139.26868 46.3576137,146.170448 52.2987915,152.095824 C58.2399692,158.022052 65.1597643,162.675108 72.8659839,165.925772 C80.8441206,169.292876 89.3188266,171 98.0543454,171 C106.785308,171 115.260299,169.292024 123.242992,165.923216 C130.946649,162.673688 137.866444,158.01978 143.810469,152.090712 C143.824136,152.07708 144.148728,151.755876 144.3264,151.562756 C144.980425,150.852472 145.5496,149.609688 142.953147,147.02756 L142.953147,147.02756 Z" id="500px" fill="#009BCD"></path>
    </g>
</svg>