<?xml version="1.0" encoding="UTF-8" standalone="no"?>
<svg width="200px" height="200px" viewBox="0 0 200 200" version="1.1" xmlns="http://www.w3.org/2000/svg" xmlns:xlink="http://www.w3.org/1999/xlink">
    <!-- Generator: Sketch 3.7.2 (28276) - http://www.bohemiancoding.com/sketch -->
    <title>Bandcamp</title>
    <desc>Created with Sketch.</desc>
    <defs></defs>
    <g id="Page-1" stroke="none" stroke-width="1" fill="none" fill-rule="evenodd">
        <path d="M100,0 C44.771526,3.03201907e-14 0,44.771526 0,100 C1.5158245e-14,155.228474 44.771526,200 100,200 C155.228474,200 200,155.228474 200,100 C200,44.771526 155.228474,-1.51545443e-14 100,0 Z M167,128 C158.704905,125.945239 152.84147,119.647851 152,111 C151.891185,107.689014 151.925642,104.298818 153,101 C154.916083,90.1856222 163.231203,85.4765284 173,86 C178.263805,86.3229406 182.793818,87.6986261 186,91 C188.56381,93.9099189 189.742106,96.8455988 190,100 C187.167114,100.449362 184.637456,100.449362 181,100 C181.05307,100.449362 181.041053,99.9546356 181,100 C179.264086,95.1163198 176.932724,93.2595883 173,93 C167.890578,92.8293098 164.219907,94.777494 163,99 C160.173171,104.434178 160.063419,110.117434 163,116 C164.654482,119.488531 168.287704,121.302422 173,121 C176.500075,120.511117 179.509553,117.982961 181,114 C180.976565,112.141156 180.920513,111.889038 181,112 C185.001492,111.889038 187.597096,111.889039 190,112 C189.856778,112.648772 189.802761,113.260236 190,114 C187.780347,122.042149 181.551148,126.875533 174,128 C170.079462,128.324067 167.908834,127.725148 167,128 Z M128,128 C127.383562,127.886397 126.873988,127.745411 126,128 C122.72504,127.09163 119.428064,125.898898 117,123 C116.878802,122.522794 116.614417,122.232168 116,122 C116.104882,123.568119 116,127 116,127 L108,127 L108,72 L77,126 L10,126 L41,72 L117,72 C117,72 116.508609,85.1486788 117,92 C117.48765,90.9772738 118.182851,90.3065813 119,90 C126.871475,82.9122307 140.249108,85.6058568 145,95 C149.00345,102.946329 148.897395,110.983257 145,119 C143.046986,123.527163 139.271547,126.439628 134,128 C133.483222,127.690012 132.805974,127.847476 132,128 L128,128 Z M118,114 C119.44827,118.338842 122.514332,120.63708 127,121 C131.098042,121.278027 134.69956,119.809823 137,116 C139.843585,109.846063 139.805205,103.680997 136,98 C134.106861,94.0838863 130.578772,92.6421418 126,93 C122.34639,93.4807049 119.880975,95.1485431 118,99 C117.559904,101.184503 117.000078,102.285161 117,106 C117.000078,110.166673 116.973052,111.928854 118,114 Z" id="Bandcamp" fill="#009BCD"></path>
    </g>
</svg>