<?xml version="1.0" encoding="UTF-8" standalone="no"?>
<svg width="200px" height="200px" viewBox="0 0 200 200" version="1.1" xmlns="http://www.w3.org/2000/svg" xmlns:xlink="http://www.w3.org/1999/xlink">
    <!-- Generator: Sketch 3.7.2 (28276) - http://www.bohemiancoding.com/sketch -->
    <title>Behance</title>
    <desc>Created with Sketch.</desc>
    <defs></defs>
    <g id="Page-1" stroke="none" stroke-width="1" fill="none" fill-rule="evenodd">
        <path d="M100,0 C44.771526,1.51545443e-14 0,44.771526 0,100 C-7.5791226e-15,155.228474 44.771526,200 100,200 C155.228474,200 200,155.228474 200,100 C200,44.771526 155.228474,-2.27373675e-14 100,0 Z M69,55 C73.5114961,55 77.3786676,55.3725222 81,56 C84.4259671,56.8899522 87.425831,58.1373889 90,60 C92.4562151,61.5686945 94.4085076,63.8448394 96,67 C97.1702871,69.5454545 97.8573307,73.089542 98,77 C97.8573307,81.8079289 96.8335676,85.5912509 95,89 C92.7249104,91.6404648 89.6944356,94.1182502 86,96 C91.1603555,97.6349966 95.2418031,100.437457 98,104 C100.670128,108.438141 102,113.239918 102,119 C102,123.434723 101.129291,127.365003 99,131 C97.6396535,134.012303 95.2520067,136.725906 92,139 C89.3441114,140.929597 85.9361027,142.477785 82,143 C78.3446102,144.49419 74.4264206,145 70,145 L27,145 L27,55 L69,55 Z M68,130 C70.2457732,130 72.1130003,129.824186 74,129 C75.6514471,129.038196 77.2332601,128.417678 79,128 C79.9017098,126.621622 81.0055402,125.415058 82,124 C82.6148629,122.357281 83,120.385411 83,118 C83,113.314948 81.6864075,109.995174 79,108 C76.4595472,105.989382 72.9692425,105 69,105 L47,105 L47,130 L68,130 Z M67,92 C70.4473964,92 73.341339,91.1706485 76,89 C77.8981934,87.8191126 79,85.0750853 79,81 C79,79.2150171 78.6327311,77.4880546 78,76 C77.1398512,74.8054608 76.1332625,73.7542662 75,73 C73.5997875,72.2559727 72.1749203,71.7303754 71,71 C68.8967056,71.1228669 67.1929862,71 65,71 L47,71 L47,92 L67,92 Z M130,130 C133.041996,132.23954 136.910882,133.561116 142,134 C145.525465,133.561116 148.640361,132.648027 151,131 C153.843228,128.992239 155.419441,127.042485 156,125 L172,125 C169.236891,132.895179 165.39871,138.521317 160,142 C154.989565,145.304263 148.67789,147 141,147 C136.201245,147 131.588605,146.165862 127,145 C123.311782,142.856773 119.852301,140.525994 117,137 C114.106972,134.429581 111.906415,130.818417 110,127 C108.784695,122.356898 108,117.685041 108,113 C108,107.730312 108.8154,103.158002 110,99 C112.025825,94.6930501 114.267322,91.0338292 117,88 C120.173003,84.8790607 123.676835,82.4453012 128,81 C131.841072,78.8924929 136.341125,78 141,78 C146.82874,78 151.649495,79.0641262 156,81 C159.899024,83.3755535 163.273211,86.2795881 166,90 C168.57843,93.536242 170.465109,97.6829013 172,102 C172.812369,106.975126 173.221775,111.828914 173,117 L126,117 C125.942215,122.082284 127.68219,126.980697 130,130 Z M151,96 C148.772589,93.2805297 145.185872,92 141,92 C137.961394,92 135.603145,92.4840608 134,93 C131.873504,94.4409024 130.359188,95.6493379 129,97 C128.055386,98.5228053 127.269303,100.053948 127,102 C126.35731,103.277587 126.081671,104.726336 126,106 L155,106 C154.57463,101.416871 153.019479,98.0284453 151,96 Z M122,70 L158,70 L158,61 L122,61 L122,70 Z" id="Behance" fill="#009BCD"></path>
    </g>
</svg>