<?xml version="1.0" encoding="UTF-8" standalone="no"?>
<svg width="200px" height="200px" viewBox="0 0 200 200" version="1.1" xmlns="http://www.w3.org/2000/svg" xmlns:xlink="http://www.w3.org/1999/xlink">
    <!-- Generator: Sketch 3.7.2 (28276) - http://www.bohemiancoding.com/sketch -->
    <title>Bitbucket</title>
    <desc>Created with Sketch.</desc>
    <defs></defs>
    <g id="Page-1" stroke="none" stroke-width="1" fill="none" fill-rule="evenodd">
        <path d="M0,100 C0,155.2286 44.7714,200 100,200 C155.2286,200 200,155.2286 200,100 C200,44.7714 155.2286,0 100,0 C44.7714,0 0,44.7714 0,100 Z M145,129 C143.914719,129 143.170822,129.661053 143,130 C143.170822,129.661053 128.149274,141.64541 101,142 C73.849729,141.64541 58.8281812,129.661053 59,130 C58.8281812,129.661053 58.0852807,129 57,129 C56.0500325,129 55,129.749462 55,131 C55,131.577907 55.0169521,131.752715 55,132 C57.379276,144.495575 59.0834598,153.415778 59,155 C61.4178626,164.020763 79.3741166,170.998995 101,171 C122.625883,170.998995 140.582137,164.020763 143,155 C142.915543,153.415778 144.619727,144.495575 147,132 C146.982051,131.752715 147,131.577907 147,131 C147,129.749462 145.94897,129 145,129 Z M101,30 L100,30 C67.1951562,30 40,38.9496471 40,50 C40,52.9869719 47.2633825,94.9516636 50,112 C51.4360691,119.057589 70.7338793,130 100,130 L101,130 C130.266121,130 149.56492,119.057589 151,112 C153.737607,94.9516636 161,52.9869719 161,50 C161,38.9496471 133.804844,30 101,30 Z M101,57 C79.447488,56.9640712 61.9920386,53.1307679 62,48 C62.0069714,43.7397357 79.4753625,39.9645592 101,40 C122.552513,40.0349231 140.006967,43.8682264 140,49 C139.993029,53.2602783 122.525634,57.0344351 101,57 Z M101,117 C89.7304003,117 81,108.268372 81,98 C81,86.729622 89.7304003,78 101,78 C111.2696,78 120,86.729622 120,98 C120,108.268372 111.2696,117 101,117 Z M110,98 C110,102.747665 105.746691,107 101,107 C95.2523345,107 91,102.747665 91,98 C91,92.2523345 95.2523345,88 101,88 C105.746691,88 110,92.2523345 110,98 Z" id="Bitbucket" fill="#009BCD"></path>
    </g>
</svg>