<?xml version="1.0" encoding="UTF-8" standalone="no"?>
<svg width="200px" height="200px" viewBox="0 0 200 200" version="1.1" xmlns="http://www.w3.org/2000/svg" xmlns:xlink="http://www.w3.org/1999/xlink">
    <!-- Generator: Sketch 3.7.2 (28276) - http://www.bohemiancoding.com/sketch -->
    <title>Blog</title>
    <desc>Created with Sketch.</desc>
    <defs></defs>
    <g id="Page-1" stroke="none" stroke-width="1" fill="none" fill-rule="evenodd">
        <path d="M174.977114,67.9271439 L176.514978,70.5908023 L59.6360711,138.070871 L59.9434479,138.603263 L59.05,139.119095 L46,116.515832 L46.3001827,116.342522 L46,115.82259 L163.472172,48 L166.399104,53.0695943 L49,120.849999 L49.5158324,121.743446 L166.914936,53.9630423 L170.430193,60.0516451 L53,127.849999 L53.5158324,128.743446 L170.946025,60.9450931 L174.461282,67.0336959 L57,134.849999 L57.5158324,135.743446 L174.977114,67.9271439 Z M0,100 C0,155.2286 44.7714,200 100,200 C155.2286,200 200,155.2286 200,100 C200,44.7714 155.2286,0 100,0 C44.7714,0 0,44.7714 0,100 Z M29.525,140.197442 L45.3361981,116 L58.3861981,138.603263 L29.525,140.197442 Z M32.0050286,138.435488 L36.863558,131 L40.8736152,137.945623 L32.0050286,138.435488 Z M47.5158324,118.743446 L165.035477,50.8934479 L164.519645,50 L47,117.849999 L47.5158324,118.743446 Z M51.5158324,125.743446 L169.035477,57.8934479 L168.519645,57 L51,124.849999 L51.5158324,125.743446 Z M55.5158324,132.743446 L173.035477,64.8934479 L172.519645,64 L55,131.849999 L55.5158324,132.743446 Z" id="Blog" fill="#009BCD"></path>
    </g>
</svg>