<?xml version="1.0" encoding="UTF-8" standalone="no"?>
<svg width="200px" height="200px" viewBox="0 0 200 200" version="1.1" xmlns="http://www.w3.org/2000/svg" xmlns:xlink="http://www.w3.org/1999/xlink">
    <!-- Generator: Sketch 3.7.2 (28276) - http://www.bohemiancoding.com/sketch -->
    <title>deviantART</title>
    <desc>Created with Sketch.</desc>
    <defs></defs>
    <g id="Page-1" stroke="none" stroke-width="1" fill="none" fill-rule="evenodd">
        <path d="M100,0 C44.7714,0 0,44.7714 0,100 C0,155.2286 44.7714,200 100,200 C155.2286,200 200,155.2286 200,100 C200,44.7714 155.2286,0 100,0 Z M50,63 C55.7500115,61.4899976 61.7756482,60.0848808 68,59 L74,71 C107.332881,64.3764778 161.77623,70.5176005 180,98 L105,119 L86,85 C89.9990381,84.3095295 94.0870019,83.8193725 98,84 C101.366427,83.4512101 104.76393,83.5427061 108,84 L118,101 L143,94 C127.154574,77.9875933 101.125314,78.54964 80,82 L100,120 L25,141 C22.1629501,135.871868 20.5014614,129.743817 20,124 C18.7040724,102.824394 32.861798,85.3944104 56,76 L50,63 Z M73,111 L62,87 C50.9704048,92.8677565 45.0030945,102.461976 48,117 L73,111 Z" id="deviantART" fill="#009BCD"></path>
    </g>
</svg>