<?xml version="1.0" encoding="UTF-8" standalone="no"?>
<svg width="200px" height="200px" viewBox="0 0 200 200" version="1.1" xmlns="http://www.w3.org/2000/svg" xmlns:xlink="http://www.w3.org/1999/xlink">
    <!-- Generator: Sketch 3.7.2 (28276) - http://www.bohemiancoding.com/sketch -->
    <title>Dribbble</title>
    <desc>Created with Sketch.</desc>
    <defs></defs>
    <g id="Page-1" stroke="none" stroke-width="1" fill="none" fill-rule="evenodd">
        <path d="M100,0 C44.771526,1.51545443e-14 0,44.771526 0,100 C-7.5791226e-15,155.228474 44.771526,200 100,200 C155.228474,200 200,155.228474 200,100 C200,44.771526 155.228474,-2.27373675e-14 100,0 L100,0 L100,0 Z M99,13 C103.875228,12.9923237 108.654648,13.1422287 111,13 C127.280266,15.6207181 141.784748,21.7365804 154,32 C158.288353,34.8751774 164.985507,41.5527512 168,45 C178.105375,58.024094 184.375686,72.8858166 186,89 C186.985001,93.0272487 187.164905,102.155194 187,106 C184.747459,131.241493 172.365957,153.75479 152,169 C140.376255,177.809814 126.97854,183.284403 111,186 C107.840133,186.045028 95.2096328,186.170771 91,186 C67.3599803,183.014635 45.7177355,170.696535 31,152 C22.4503165,139.79778 16.9085942,126.384173 15,111 C14.0440212,107.246413 13.7916097,95.8681477 14,92 C16.805589,65.5319195 30.3797035,42.5145896 52,28 C63.5885117,19.8897082 76.3987702,15.1422932 91,13 C92.763374,13.1103859 95.9967683,13.0065087 99,13 L99,13 L99,13 Z M101,26 C95.1491404,25.992783 93.278777,26.1294436 89,27 C87.9091955,27.0731818 86.8474008,27.25823 87,27 C84.8467466,27.6082147 84.1456297,27.7487993 84,28 C83.9182819,27.877424 85.0446608,29.567385 87,32 C94.5803085,42.7143565 102.655394,55.2905503 109,67 C110.482422,69.1943956 111.583884,70.9987852 112,71 C111.801008,71.0012212 113.341017,70.3981435 115,70 C126.736155,64.8293541 137.022312,58.2463496 144,51 C147.038238,48.2839145 150.014629,44.7665351 150,44 C149.988884,43.938842 145.907081,40.7112159 143,39 C132.968696,31.9749991 122.694042,28.081312 110,26 C108.374775,26.1045332 106.044871,26.0060129 101,26 L101,26 L101,26 Z M70,33 L67,35 C60.0594642,37.9549452 54.5862878,41.9661028 49,48 C40.8215367,55.6212065 35.1351149,64.5918607 31,75 C30.4871422,77.8857114 29,83.1035135 29,84 C29,84.0716896 33.9066707,84.077522 40,84 C57.5903739,82.8967644 75.296795,80.4104628 91,77 C94.2885384,75.8563945 96.7086516,75.2639535 97,75 C97.2108023,75.0814943 97.1491707,74.9691297 93,68 C86.9075651,57.7364211 77.7673897,43.9292805 71,35 L70,33 L70,33 Z M158,53 C158.094637,53.0198381 158.010313,53.1251939 158,53 C154.648308,57.8315229 147.540098,64.4427659 141,69 C134.337522,73.732476 126.383512,78.1229493 119,81 C118.029683,81.6303174 117.122374,82.0479795 117,82 C116.900118,82.2314475 117.625291,83.9597216 119,86 C119.621999,87.9981073 121.091543,91.2089672 122,93 L123,97 L125,96 C125.785773,96.3626814 127.829595,96.1805498 129,96 C133.427123,95.6542429 148.878513,95.6495891 153,96 C159.836063,96.6089291 165.157356,97.2431017 170,98 C172.402166,98.4456812 174.582957,98.8488266 175,99 C174.98054,99.2437912 175.057843,98.7310817 175,97 C174.169971,80.8113263 168.875637,66.5561213 159,54 C158.517015,53.1951538 158.336378,52.9735542 158,53 L158,53 L158,53 Z M102,87 C101.90082,87.0032527 101.872491,87.0017178 102,87 C101.573994,87.0659127 99.4535668,87.6460388 97,88 C78.0967534,93.6044394 55.1836347,96.8727457 34,97 L27,97 L27,98 C26.8731652,108.812159 28.5160273,117.880141 32,127 C34.7747143,133.854376 39.6249163,141.954081 44,147 L46,149 L48,146 C48.7864048,144.189265 50.5084793,141.722465 51,140 C59.6651503,129.443103 69.8532675,119.671858 81,112 C88.008837,107.421893 96.1192741,103.407793 104,101 C106.518637,99.8810521 108.036806,99.2493447 108,99 C107.909086,98.7547328 105.849821,94.2788857 104,90 C102.594997,87.4439106 102.319602,86.9715762 102,87 L102,87 L102,87 Z M142,107 C138.06466,107.034722 134.256971,107.271415 131,108 C129.285168,107.911978 128.064982,108.111528 128,108 C127.949623,108.224899 128.239552,109.148027 129,110 C133.217115,122.020998 139.141836,143.213604 142,157 C142.111071,158.815643 142.437689,160 143,160 C142.683672,160 143.153345,159.773461 144,160 C144.056194,159.231832 144.530503,158.894039 145,159 C144.780048,158.600327 145.952218,157.653334 147,157 C150.257465,154.337925 156.349633,148.357356 159,145 C165.925389,136.514161 171.152708,125.64133 173,115 C174.29726,111.062128 174.427738,111.372909 172,111 C162.808921,108.197865 152.023476,106.923804 142,107 L142,107 L142,107 Z M114,112 C113.368472,111.985491 112.281917,112.464352 110,113 C90.8535827,120.59027 74.424965,132.294648 63,147 C61.0203739,149.312336 57.7170312,154.22862 57,156 L56,157 L57,158 C60.0076093,161.039774 68.0247183,165.559019 74,168 C80.4060298,170.492167 88.0334872,172.265481 95,173 C98.6120694,173.144726 106.787173,172.969411 110,173 C116.566858,171.748048 124.124217,169.823179 129,168 L130,167 L130,165 C128.858178,161.021393 127.189266,153.482857 126,148 C123.352844,138.259551 120.614935,129.464354 115,114 C114.746692,112.672282 114.668385,112.017159 114,112 L114,112 L114,112 Z" id="Dribbble" fill="#009BCD"></path>
    </g>
</svg>