<?xml version="1.0" encoding="UTF-8" standalone="no"?>
<svg width="200px" height="200px" viewBox="0 0 200 200" version="1.1" xmlns="http://www.w3.org/2000/svg" xmlns:xlink="http://www.w3.org/1999/xlink">
    <!-- Generator: Sketch 3.7.2 (28276) - http://www.bohemiancoding.com/sketch -->
    <title>Etsy</title>
    <desc>Created with Sketch.</desc>
    <defs></defs>
    <g id="Page-1" stroke="none" stroke-width="1" fill="none" fill-rule="evenodd">
        <path d="M100,0 C44.771526,1.51545443e-14 0,44.771526 0,100 C-7.5791226e-15,155.228474 44.771526,200 100,200 C155.228474,200 200,155.228474 200,100 C200,44.771526 155.228474,-2.27373675e-14 100,0 Z M57,42 C58.9061914,41.8316307 81.3619382,42.5482312 96,43 C127.772506,42.5482312 135.283055,40 141,40 C143.664586,40.0793038 144.297423,42.3886682 144,44 C144.297423,45.0964624 142.874251,47.9628642 143,52 C142.874251,55.4470392 143.743335,59.4284713 144,63 C143.743335,65.9571791 140.97669,67.071254 139,67 C137.9719,67.071254 137.026915,66.5132611 137,64 C136.785924,58.3927448 140.659797,50.6697029 103,51 C83.2585512,50.6697029 82.7841608,52.8997635 83,59 C82.7841608,65.3198825 82.9426072,85.8624286 83,89 C82.9426072,92.2325289 83.8913881,93.1879961 86,93 C88.9512367,93.1879961 108.796887,93.1879961 114,93 C119.55037,93.1879961 125.004912,90.2422906 126,83 C125.874944,78.5378166 126.981222,78.3782536 129,78 C130.934792,78.3782536 132.753605,79.9710175 132,84 C132.120769,87.6147556 131.330434,91.6754915 131,97 C131.330434,102.663365 132.437661,108.077998 132,112 C132.437661,116.039907 127.218418,116.994418 126,113 C125.163358,108.396169 123.660489,101.149905 111,101 C99.309078,101.149905 89.5053248,101.149905 87,101 C84.1285833,101.149905 82.7841608,102.663365 83,107 C82.7841608,111.580741 82.7841608,133.396925 83,139 C82.7841608,144.384799 84.4445274,150.277165 96,150 C106.582433,150.277165 126.665278,151.471499 136,144 C139.789765,140.960404 140.97669,136.42289 142,129 C142.953,125.594579 150.306052,125.673883 150,134 C149.751964,137.21975 146.267092,145.084201 146,150 C146.267092,154.352233 147.225361,160 143,160 C140.072501,160 141.450131,158.318378 127,158 C112.67076,158.318378 63.0182079,158.637504 55,159 C51.6328369,158.637504 51,157.76134 51,156 C51,153.940427 52.1072273,152.50627 55,153 C57.3255224,152.50627 68.3940006,152.664878 68,138 C68.3940006,124.319986 68.3940006,72.485887 68,65 C68.3940006,57.1984107 66.733634,49.5556281 57,49 C53.7675939,48.2810348 54.0047892,46.6882708 54,45 C53.8529842,43.1864833 54.4791796,41.8316307 57,42 Z" id="Etsy" fill="#009BCD"></path>
    </g>
</svg>