<?xml version="1.0" encoding="UTF-8" standalone="no"?>
<svg width="200px" height="200px" viewBox="0 0 200 200" version="1.1" xmlns="http://www.w3.org/2000/svg" xmlns:xlink="http://www.w3.org/1999/xlink">
    <!-- Generator: Sketch 3.7.2 (28276) - http://www.bohemiancoding.com/sketch -->
    <title>Fancy</title>
    <desc>Created with Sketch.</desc>
    <defs></defs>
    <g id="Page-1" stroke="none" stroke-width="1" fill="none" fill-rule="evenodd">
        <path d="M100,0 C44.7714,0 0,44.7714 0,100 C0,155.2286 44.7714,200 100,200 C155.2286,200 200,155.2286 200,100 C200,44.7714 155.2286,0 100,0 Z M100,20 C102.751526,20.0169336 106.356295,20.4434738 110,21 C118.597599,22.9634288 122.796851,24.5489239 128,28 C136.281821,33.5032627 141.364682,41.303257 145,54 C145.884919,58.3460259 145.998125,61.8485468 146,93 C146.001932,130.743218 146.05583,130.17276 142,133 C140.617922,134.211864 139.345804,134.33233 125,135 L109,135 L109,152 C108.844027,172.684072 108.555502,174.736997 105,178 C103.148049,179.694726 102.28147,180.034475 100,180 C97.7027272,179.97334 95.6119176,179.696129 95,179 C94.1007642,179.071151 92.7266604,178.000191 92,177 C89.5648995,174.596087 89.0966463,170.091757 89,150 L89,135 L74,135 C60.7077196,134.315693 59.3514484,134.176586 58,133 C53.9614274,130.173161 54.0115186,130.735601 54,93 C53.9910814,60.1802693 54.062211,58.1349606 55,53 C57.5579806,45.0845925 61.1042421,38.9422524 67,33 C74.1007226,25.8117075 77.4686593,24.2017586 93,21 C94.741131,20.2229878 97.0196826,19.9876691 100,20 Z" id="Fancy" fill="#009BCD"></path>
    </g>
</svg>