<?xml version="1.0" encoding="UTF-8" standalone="no"?>
<svg width="200px" height="200px" viewBox="0 0 200 200" version="1.1" xmlns="http://www.w3.org/2000/svg" xmlns:xlink="http://www.w3.org/1999/xlink">
    <!-- Generator: Sketch 3.7.2 (28276) - http://www.bohemiancoding.com/sketch -->
    <title>Foursquare</title>
    <desc>Created with Sketch.</desc>
    <defs></defs>
    <g id="Page-1" stroke="none" stroke-width="1" fill="none" fill-rule="evenodd">
        <path d="M100,200 C155.228478,200 200,155.228478 200,100 C200,44.7715223 155.228478,0 100,0 C44.7715223,0 0,44.7715223 0,100 C0,155.228478 44.7715223,200 100,200 Z M133.720598,37.6170676 L66.7208115,37.6170676 C57.474389,37.6170676 54.7557715,44.5705811 54.7557715,48.9492976 L54.7557715,155.402733 C54.7557715,160.335364 57.4069988,162.16476 58.8953351,162.767984 C60.3861369,163.37203 64.4961146,163.880744 66.9599644,161.03803 C66.9599644,161.03803 98.5914245,124.334228 99.1346549,123.790997 C99.9564861,122.969166 99.9564861,122.969166 100.778317,122.969166 L121.243557,122.969166 C129.843199,122.969166 131.225519,116.836662 132.12378,113.224714 C132.871646,110.199553 141.261721,67.2481906 144.063343,53.6214079 C146.201748,43.222778 143.559561,37.6170676 133.720598,37.6170676 L133.720598,37.6170676 Z M129.763481,55.7507724 L126.951175,70.4081314 C126.615046,71.9926219 124.620461,73.6592956 122.77052,73.6592956 L96.6691614,73.6592956 C93.7327586,73.6592956 91.6305145,75.6612763 91.6305145,78.5952136 L91.6305145,81.791315 C91.6305145,84.7277178 93.7450861,86.8085944 96.6839544,86.8085944 L118.828195,86.8085944 C120.901675,86.8085944 122.937351,89.0826012 122.488631,91.2966144 C122.038268,93.5139149 119.933558,104.49851 119.680434,105.710711 C119.426488,106.924556 118.036772,108.998036 115.571278,108.998036 L97.4959236,108.998036 C94.2036679,108.998036 93.2084303,109.427854 91.0059228,112.165373 C88.8025934,114.904537 68.9964621,138.689153 68.9964621,138.689153 C68.7959353,138.919265 68.6003394,138.852697 68.6003394,138.601217 L68.6003394,55.5329872 C68.6003394,53.6592121 70.2292088,51.4608137 72.6725129,51.4608137 L126.439996,51.4608137 C128.418965,51.4608137 130.268085,53.3206177 129.763481,55.7507724 L129.763481,55.7507724 Z" id="Foursquare" fill="#009BCD"></path>
    </g>
</svg>