<?xml version="1.0" encoding="UTF-8" standalone="no"?>
<svg width="200px" height="200px" viewBox="0 0 200 200" version="1.1" xmlns="http://www.w3.org/2000/svg" xmlns:xlink="http://www.w3.org/1999/xlink">
    <!-- Generator: Sketch 3.7.2 (28276) - http://www.bohemiancoding.com/sketch -->
    <title>Goodreads</title>
    <desc>Created with Sketch.</desc>
    <defs></defs>
    <g id="Page-1" stroke="none" stroke-width="1" fill="none" fill-rule="evenodd">
        <path d="M100,0 C44.771524,3.03201907e-14 0,44.771524 0,100 C0,155.228476 44.771524,200 100,200 C155.228476,200 200,155.228476 200,100 C200,44.771524 155.228476,-3.41060513e-14 100,0 L100,0 L100,0 Z M100,128 C114.81688,128.197556 125.62144,120.618889 132,106 L132,106 L132,129 C132.36688,130.219778 132.25456,132.868889 132,136 C131.5744,140.194 130.35292,144.204222 128,148 C126.38584,152.538889 123.18004,155.982889 119,159 C114.39256,161.915778 108.29608,163.525778 100,164 C92.92696,163.653333 86.54968,161.694889 81,158 C75.99472,153.928 72.87784,147.676222 72,139 L65,139 C66.02008,150.264667 69.61744,158.285111 76,163 C82.48744,167.693111 90.54328,170 100,170 C109.9372,170 117.45328,168.200222 123,165 C128.16892,161.127111 131.9956,156.799556 134,152 C136.64752,146.444222 138.03748,141.517778 138,137 C138.83308,132.172 139,128.826 139,127 L139,32 L132,32 L132,53 L132,53 C129.47464,45.4731111 125.25172,39.6957778 119,36 C113.39728,31.9273333 106.81876,30 100,30 C87.08164,30.2535556 77.55628,35.0835556 71,44 C64.34308,53.8373333 61,65.364 61,79 C61,93.1493333 64.1746,104.798889 71,114 C76.93852,123.429778 86.63392,128.197556 100,128 L100,128 Z M76,49 C81.3682832,40.7555588 89.4068198,36.3171414 100,36 C111.362612,36.3187037 119.597211,40.630577 125,49 C130.319442,57.2484741 133,67.2360849 133,79 C133,90.5764424 130.319442,100.5 125,109 C119.597211,117.372548 111.362612,121.809403 100,122 C89.7534572,121.80784 81.7666809,117.494405 76,109 C70.7636888,100.879632 68.0000007,90.8279683 68,79 C67.9984322,67.7422613 70.707223,57.8796323 76,49 L76,49 Z" id="Goodreads" fill="#009BCD"></path>
    </g>
</svg>