<?xml version="1.0" encoding="UTF-8" standalone="no"?>
<svg width="200px" height="200px" viewBox="0 0 200 200" version="1.1" xmlns="http://www.w3.org/2000/svg" xmlns:xlink="http://www.w3.org/1999/xlink">
    <!-- Generator: Sketch 3.7.2 (28276) - http://www.bohemiancoding.com/sketch -->
    <title>Google+</title>
    <desc>Created with Sketch.</desc>
    <defs></defs>
    <g id="Page-1" stroke="none" stroke-width="1" fill="none" fill-rule="evenodd">
        <path d="M100,0 C44.7714,0 0,44.7714 0,100 C0,155.2286 44.7714,200 100,200 C155.2286,200 200,155.2286 200,100 C200,44.7714 155.2286,0 100,0 Z M71.5697674,90.2840909 L71.5697674,108.636364 L96.1744186,108.636364 C94.0348837,119.431818 84.4069767,128.068182 71.5697674,128.068182 C56.5930233,128.068182 43.755814,115.113636 43.755814,100 C43.755814,84.8863636 56.5930233,71.9318182 71.5697674,71.9318182 C77.9883721,71.9318182 84.4069767,74.0909091 88.6860465,78.4090909 L102.593023,64.375 C94.0348837,57.8977273 84.4069767,52.5 71.5697674,52.5 C45.8953488,52.5 24.5,74.0909091 24.5,100 C24.5,125.909091 45.8953488,147.5 71.5697674,147.5 C98.3139535,147.5 116.5,128.068182 116.5,101.079545 C116.5,97.8409091 116.5,93.5227273 115.430233,90.2840909 C115.430233,90.2840909 71.5697674,90.2840909 71.5697674,90.2840909 Z M159.428571,91.597561 L159.428571,75.5 L147.642857,75.5 L147.642857,91.597561 L130.5,91.597561 L130.5,103.402439 L146.571429,103.402439 L146.571429,119.5 L158.357143,119.5 L158.357143,103.402439 L175.5,103.402439 L175.5,91.597561 L159.428571,91.597561 Z" id="Google+" fill="#009BCD"></path>
    </g>
</svg>