<?xml version="1.0" encoding="UTF-8" standalone="no"?>
<svg width="200px" height="200px" viewBox="0 0 200 200" version="1.1" xmlns="http://www.w3.org/2000/svg" xmlns:xlink="http://www.w3.org/1999/xlink">
    <!-- Generator: Sketch 3.7.2 (28276) - http://www.bohemiancoding.com/sketch -->
    <title>iTunes</title>
    <desc>Created with Sketch.</desc>
    <defs></defs>
    <g id="Page-1" stroke="none" stroke-width="1" fill="none" fill-rule="evenodd">
        <path d="M100,0 C44.771526,0 0,44.771526 0,100 C0,155.228484 44.771526,200 100,200 C155.228474,200 200,155.228484 200,100 C200,44.771526 155.228474,0 100,0 L100,0 L100,0 Z M149,49 C148.668441,61.5550901 148.460879,86.4761451 148,104 L148,137 L147,139 C143.518359,144.25531 136.882449,149.249408 131,151 C127.118503,151.394631 119.660938,150.856832 116,150 C111.727474,147.686235 107.360918,143.224358 106,139 C105.649392,137.688869 105.506363,135.48484 106,133 C105.945624,128.281332 107.530167,125.11911 112,121 C118.01357,114.711914 123.97545,113.215118 136,115 L138,115 L138,90 L138,65 L137,65 C134.506093,64.7474554 118.179227,67.111509 108,69 C100.638618,70.2215058 89.6194811,72.6314459 81,75 L77,76 L76,107 C76.0101464,141.644043 75.5639761,152.168046 74,155 C73.3364657,157.108322 67.6672516,162.744669 65,164 C63.4753272,164.98039 61.1612794,165.871823 60,166 C56.4363802,167.16669 49.7772783,167.264166 46,166 C38.9416117,164.444789 33.7902199,158.413752 33,151 C32.8626364,147.960317 32.90928,147.368897 34,144 C37.222562,137.668539 44.1870761,131.913186 51,131 C53.8297703,129.932611 61.7150482,130.15965 65,131 L66,131 L66,88 C66.1456948,57.2466992 66.2844036,43.4063874 67,42 C67.2077808,40.6193086 66.4679619,40.9769126 78,37 C89.6126056,33.9635683 101.876124,30.3497105 112,28 C119.878756,27.1237702 134.41096,26.2067087 142,26 L149,26 L149,49 Z" id="iTunes" fill="#009BCD"></path>
    </g>
</svg>