<?xml version="1.0" encoding="UTF-8" standalone="no"?>
<svg width="200px" height="200px" viewBox="0 0 200 200" version="1.1" xmlns="http://www.w3.org/2000/svg" xmlns:xlink="http://www.w3.org/1999/xlink">
    <!-- Generator: Sketch 3.7.2 (28276) - http://www.bohemiancoding.com/sketch -->
    <title>LastFm</title>
    <desc>Created with Sketch.</desc>
    <defs></defs>
    <g id="Page-1" stroke="none" stroke-width="1" fill="none" fill-rule="evenodd">
        <path d="M100,0 C44.771526,3.03201907e-14 0,44.771526 0,100 C1.5158245e-14,155.228474 44.771526,200 100,200 C155.228474,200 200,155.228474 200,100 C200,44.771526 155.228474,-1.51545443e-14 100,0 Z M142,142 C127.469556,141.460222 119.699556,134.279778 114,122 L113,118 L99,88 C95.0315556,76.8004444 84.0711111,69.4924444 72,69 C54.9853333,69.4924444 41.4162222,83.1548889 41,100 C41.4162222,116.856 54.9853333,130.518444 72,131 C83.3773333,130.518444 93.5288889,123.876222 99,114 L104,127 C96.332,136.025111 84.7104444,142 72,142 C48.6744444,142 30,123.210444 30,100 C30,76.8128889 48.6744444,58 72,58 C89.0971111,58 103.132889,67.3473333 110,84 C110.811111,85.1973333 117.806444,101.681556 124,116 C127.696667,124.394222 130.918222,130.151333 141,131 C151.655333,130.862222 158.708222,124.565333 159,117 C158.708222,108.826222 153.330667,106.956444 144,104 C127.936222,98.5035556 119.505111,93.0653333 120,80 C119.505111,67.324 128.093333,58.8477778 142,59 C151.145111,58.8477778 157.704889,62.9202222 162,71 L153,76 C149.969111,70.8908889 146.266889,69.0211111 142,69 C134.998444,69.0211111 130.328667,73.6084444 130,80 C130.328667,88.3722222 138.017778,89.6804444 149,93 C163.267556,97.9871111 170,103.411333 170,117 C170,131.184222 157.877556,141.542667 142,142 Z" id="LastFm" fill="#009BCD"></path>
    </g>
</svg>