<?xml version="1.0" encoding="UTF-8" standalone="no"?>
<svg width="200px" height="200px" viewBox="0 0 200 200" version="1.1" xmlns="http://www.w3.org/2000/svg" xmlns:xlink="http://www.w3.org/1999/xlink">
    <!-- Generator: Sketch 3.7.2 (28276) - http://www.bohemiancoding.com/sketch -->
    <title>Medium</title>
    <desc>Created with Sketch.</desc>
    <defs></defs>
    <g id="Page-1" stroke="none" stroke-width="1" fill="none" fill-rule="evenodd">
        <path d="M100,0 C44.771524,0 0,44.771526 0,100 C0,155.228474 44.771524,200 100,200 C155.228476,200 200,155.228474 200,100 C200,44.771526 155.228476,-2.2737368e-14 100,0 Z M80.0500112,67.6029788 L42.6525892,48.9754537 C42.3326161,48.8158695 42.0275834,48.7406251 41.7520165,48.7406251 C41.3594166,48.7406251 41.0274082,48.8944213 40.7937573,49.1751406 C40.5650866,49.4496585 40.4310382,49.8465518 40.4310382,50.3430818 L40.4310382,130.311292 C40.4310382,131.672305 41.4307984,133.283444 42.6525892,133.892014 L77.2121698,151.10602 C77.6923369,151.345396 78.1496784,151.458676 78.5630288,151.458676 C79.7275481,151.458676 80.5442887,150.561119 80.5442887,149.054578 L80.5442887,68.4000728 C80.5442887,68.0627135 80.3529689,67.753881 80.0500112,67.6029788 Z M123.852705,134.352575 L157.434936,151.07956 C159.267622,151.992415 160.767055,151.069225 160.767055,149.027705 L160.767055,74.5953291 L123.852705,134.352575 Z M84.089723,73.5886258 L84.089723,114.571166 L120.657954,132.785674 L84.089723,73.5886258 Z M159.888062,67.4094933 L121.768522,48.4222836 C121.595463,48.3358767 121.407048,48.2957739 121.218633,48.2908127 C121.206183,48.2903993 121.194148,48.2866784 121.181697,48.2866784 C120.718131,48.2866784 120.256639,48.518613 120.006803,48.9225346 L96.5114009,86.9577282 L122.739232,129.416215 L160.253687,68.6874071 C160.531744,68.2367678 160.362834,67.6459756 159.888062,67.4094933 Z" id="Medium" fill="#009BCD"></path>
    </g>
</svg>