<?xml version="1.0" encoding="UTF-8" standalone="no"?>
<svg width="200px" height="200px" viewBox="0 0 200 200" version="1.1" xmlns="http://www.w3.org/2000/svg" xmlns:xlink="http://www.w3.org/1999/xlink">
    <!-- Generator: Sketch 3.7.2 (28276) - http://www.bohemiancoding.com/sketch -->
    <title>MySpace</title>
    <desc>Created with Sketch.</desc>
    <defs></defs>
    <g id="Page-1" stroke="none" stroke-width="1" fill="none" fill-rule="evenodd">
        <path d="M100,0 C44.7714,0 0,44.7714 0,100 C0,155.2286 44.7714,200 100,200 C155.2286,200 200,155.2286 200,100 C200,44.7714 155.2286,0 100,0 Z M146,107 C131.365412,107 121,119.380242 121,132 L121,141 C121,142.000466 121.998856,143 123,143 L168,143 C169.001144,143 170,142.000466 170,141 L170,132 C170,119.380242 159.63739,107 146,107 Z M95,111 C82.3076654,111 73,122.350246 73,134 L73,142 C73,143.083096 73.8959624,144 75,144 L115,144 C116.105435,144 117,143.083096 117,142 L117,134 C117,122.350246 107.693732,111 95,111 Z M50,114 C38.4605881,114 30,123.973486 30,134 L30,141 C30,142.194947 30.8147128,143 32,143 L68,143 C69.1852872,143 70,142.194947 70,141 L70,134 C70,123.973486 61.5408239,114 50,114 Z M50,110 C59.9394856,110 68,101.945321 68,92 C68,82.0574834 59.9394856,74 50,74 C40.0577214,74 32,82.0574834 32,92 C32,101.945321 40.0577214,110 50,110 Z M95,106 C106.042838,106 115,97.0456967 115,86 C115,74.9543033 106.042838,66 95,66 C83.9543693,66 75,74.9543033 75,86 C75,97.0456967 83.9543693,106 95,106 Z M146,102 C157.926471,102 168,92.1519051 168,80 C168,67.8508706 157.926471,58 146,58 C133.074943,58 123,67.8508706 123,80 C123,92.1519051 133.074943,102 146,102 Z" id="MySpace" fill="#009BCD"></path>
    </g>
</svg>