<?xml version="1.0" encoding="UTF-8" standalone="no"?>
<svg width="200px" height="200px" viewBox="0 0 200 200" version="1.1" xmlns="http://www.w3.org/2000/svg" xmlns:xlink="http://www.w3.org/1999/xlink">
    <!-- Generator: Sketch 3.7.2 (28276) - http://www.bohemiancoding.com/sketch -->
    <title>Phone</title>
    <desc>Created with Sketch.</desc>
    <defs></defs>
    <g id="Page-1" stroke="none" stroke-width="1" fill="none" fill-rule="evenodd">
        <path d="M100,0 C44.7714,0 0,44.7714 0,100 C0,155.2286 44.7714,200 100,200 C155.2286,200 200,155.2286 200,100 C200,44.7714 155.2286,0 100,0 Z M55,36 C62.5280417,35.995466 62.481889,35.9587641 66,45 C74.4905778,63.5166741 76.7862243,69.5977572 76,71 C75.9332987,73.9636785 72.5883279,78.9370863 68,84 C66.2006765,85.8181906 64.9827251,87.7519594 65,89 C64.9827251,89.7856054 67.1311226,93.8147918 70,98 C75.7884472,107.000399 85.5632262,116.986725 94,123 C101.52686,127.903433 112.343571,133.524439 116,134 C117.653527,134.389441 118.092477,134.077775 121,130 C127.045699,122.687953 132.75085,116.586413 137,117 C139.572456,116.586413 137.25743,116.542893 152,124 C163.078558,129.155911 167.598924,131.702581 168,133 C168.056455,133.459258 168.218489,137.29611 167,141 C164.71588,148.675905 161.444433,153.668566 152,160 C144.736762,164.718645 134.042725,165.259145 122,162 C109.202791,158.16164 104.380135,156.450489 98,153 C85.7971863,146.667328 74.8276322,138.781835 65,129 C49.7301619,113.346619 38.3512275,96.2559693 33,80 C29.0691435,69.8532666 31.6874592,60.2628404 37,50 C42.6098616,41.7167502 48.8338808,36.3618833 55,36 Z" id="Phone" fill="#009BCD"></path>
    </g>
</svg>