<?xml version="1.0" encoding="UTF-8" standalone="no"?>
<svg width="200px" height="200px" viewBox="0 0 200 200" version="1.1" xmlns="http://www.w3.org/2000/svg" xmlns:xlink="http://www.w3.org/1999/xlink">
    <!-- Generator: Sketch 3.7.2 (28276) - http://www.bohemiancoding.com/sketch -->
    <title>Pinboard</title>
    <desc>Created with Sketch.</desc>
    <defs></defs>
    <g id="Page-1" stroke="none" stroke-width="1" fill="none" fill-rule="evenodd">
        <path d="M100,0 C44.771526,1.51545443e-14 0,44.771526 0,100 C-7.5791226e-15,155.228474 44.771526,200 100,200 C155.228474,200 200,155.228474 200,100 C200,44.771526 155.228474,-2.27373675e-14 100,0 Z M38,77 C40.7318666,78.0697417 43.9790937,77.4507727 47,76 C51.3993724,75.09733 54.1152766,76.6957665 57,80 C65.510216,91.0091417 74.3671191,101.842233 83,113 C86.0379816,115.674944 86.8452277,118.452369 85,122 C83.171574,126.863999 81.7965193,131.650239 83,137 C90.247519,130.677574 96.9950927,123.855311 104,117 C106.095994,114.180802 108.223566,114.037963 111,117 C115.876441,121.114162 120.99128,125.490024 126,130 C138.189726,140.83048 150.355425,151.708917 163,163 C162.500602,160.417561 160.902072,159.395016 160,158 C147.267823,144.204201 134.605006,130.416836 122,116 C113.710103,106.843866 113.856046,106.716898 123,98 C128.030739,92.6370529 133.09769,87.6014112 139,82 C131.55845,81.7948923 126.001222,83.3275775 121,86 C117.887715,86.8350686 115.623322,86.9302946 113,85 C101.761037,75.2129616 90.2976868,65.672223 79,56 C76.2210486,54.0841254 75.429765,51.8825909 76,49 C77.2791338,44.9900421 78.2163602,41.260357 78,38 C64.4384486,51.1162483 51.223785,64.1758144 38,77 Z" id="Pinboard" fill="#009BCD"></path>
    </g>
</svg>