<?xml version="1.0" encoding="UTF-8" standalone="no"?>
<svg width="200px" height="200px" viewBox="0 0 200 200" version="1.1" xmlns="http://www.w3.org/2000/svg" xmlns:xlink="http://www.w3.org/1999/xlink">
    <!-- Generator: Sketch 3.7.2 (28276) - http://www.bohemiancoding.com/sketch -->
    <title>Pinterest</title>
    <desc>Created with Sketch.</desc>
    <defs></defs>
    <g id="Page-1" stroke="none" stroke-width="1" fill="none" fill-rule="evenodd">
        <path d="M100,0 C44.771526,1.51545443e-14 0,44.771526 0,100 C-7.5791226e-15,155.228474 44.771526,200 100,200 C155.228474,200 200,155.228474 200,100 C200,44.771526 155.228474,-2.27373675e-14 100,0 Z M103,24 C61.7961647,24 41,53.5453548 41,78 C41,93.0993901 46.6529238,106.370765 59,111 C60.7645037,112.128406 62.5462884,111.345243 63,109 C63.5239559,107.624018 64.4726984,103.783343 65,102 C65.4773626,100.0101 65.251747,99.2471666 64,97 C60.1522563,93.2313621 57.9173122,87.8975735 58,80 C57.9173122,58.4235028 74.3322923,38.8020581 101,39 C123.971578,38.8020581 136.779601,53.0338429 137,72 C136.779601,97.0489175 125.702261,118.154807 109,118 C100.174918,118.154807 93.3765616,110.650705 96,101 C98.1655899,90.4599498 103.219765,78.6026979 103,71 C103.219765,63.5723379 99.4055114,57.6499734 92,58 C82.2278736,57.6499734 74.7700251,67.2463617 75,80 C74.7700251,88.2867465 77.5391189,93.8247545 78,94 C77.5391189,93.8247545 68.0381959,134.043466 66,141 C63.0553697,155.113713 65.8736362,172.30957 66,174 C66.2525546,175.075203 67.5763589,175.319881 68,175 C69.0312902,173.425071 80.0893463,159.786679 84,146 C84.9121205,142.300868 89.9547253,122.31915 90,122 C92.9716106,128.066194 101.786045,133.129295 111,133 C139.067574,133.129295 158,107.711678 158,74 C158,47.9601451 136.189529,24 103,24 Z" id="Pinterest" fill="#009BCD"></path>
    </g>
</svg>