<?xml version="1.0" encoding="UTF-8" standalone="no"?>
<svg width="200px" height="200px" viewBox="0 0 200 200" version="1.1" xmlns="http://www.w3.org/2000/svg" xmlns:xlink="http://www.w3.org/1999/xlink">
    <!-- Generator: Sketch 3.7.2 (28276) - http://www.bohemiancoding.com/sketch -->
    <title>PlayStation</title>
    <desc>Created with Sketch.</desc>
    <defs></defs>
    <g id="Page-1" stroke="none" stroke-width="1" fill="none" fill-rule="evenodd">
        <path d="M100,0 C44.7714,0 0,44.7714 0,100 C0,155.2286 44.7714,200 100,200 C155.2286,200 200,155.2286 200,100 C200,44.7714 155.2286,0 100,0 Z M138,114 C146.049866,114.030275 154.070478,115.028241 162,117 C163.2015,117.890946 164.652286,118.482998 166,119 C168.803765,119.937337 171.466515,121.12144 174,123 C174.875861,124.215135 175.978458,125.795061 176,128 C176.069969,129.067044 175.408188,130.475409 174,132 C172.657275,133.590409 170.273522,134.98644 168,136 C165.331923,137.509388 162.593286,138.351492 160,139 C143.614778,145.228486 127.306831,151.109758 111,157 C111,152.410478 111.006696,147.822077 111,143 C111.024552,143.052024 110.924113,142.73245 111,143 C123.589472,138.248331 135.993689,133.800094 148,129 C150.076354,128.722802 151.88314,128.266428 153,127 C153.889688,126.662955 154.459959,125.931861 154,125 C153.876296,124.453974 153.164295,124.071607 153,124 C150.652204,123.047851 148.630032,122.904324 147,123 C143.562326,122.870684 140.442021,123.254172 138,124 C128.663873,127.361531 119.841981,130.511291 111,134 C111.003348,128.684677 111,123.759883 111,119 C117.400197,116.577892 124.078275,115.211015 131,114 C133.215993,114.153619 135.644385,114.087462 138,114 Z M77,108 C77.0064546,112.25258 76.9895382,116.506296 77,121 C76.9895382,121.339445 77.0267544,121.918877 77,122 C68.4535005,125.528401 59.9693399,128.617571 51,132 C50.2987726,132.120297 49.0909385,132.628153 48,134 C47.7601783,133.958575 47.4162106,134.585726 48,135 C47.9383648,135.911603 48.6646441,136.3013 49,137 C51.1975997,137.360185 53.2343396,137.468118 55,138 C57.4318733,137.524925 59.6535662,137.357912 62,137 C63.2860907,136.586472 64.6957944,136.088842 66,136 C69.721106,134.23693 73.3502472,132.905371 77,132 C77.0120934,135.192426 76.9895382,138.791724 77,142 C76.9850271,143.111336 77.0290099,143.835059 77,145 C72.4942751,145.359761 67.9775845,145.908518 63,146 C54.3045866,146.188009 45.1471515,144.763287 36,142 C33.622542,141.056055 30.7941126,139.950589 28,138 C27.109711,137.109097 25.9390931,135.826393 25,134 C24.8451631,132.912188 24.8812515,131.368171 26,130 C26.101491,128.792537 27.148055,127.77569 28,127 C30.9677881,125.130751 33.9089938,123.716254 37,122 C39.4575875,121.34967 42.1213636,120.490746 45,120 C55.4943765,115.692818 66.234063,111.821982 77,108 Z M101,47 C104.205013,47.8866367 107.882396,48.9953054 112,50 C117.27553,52.0050313 122.990156,54.0760469 128,57 C130.517037,58.5793803 132.75339,60.177664 135,62 C136.735629,64.151988 138.430893,66.5539159 140,69 C141.941788,73.9037701 142.717987,79.1949899 143,84 C143.055465,87.7919557 143.048715,91.2158847 142,95 C141.888916,97.4784558 140.952977,100.349739 139,103 C138.02142,105.113075 136.11017,107.044522 134,108 C131.565468,109.489221 129.01751,110.061001 126,110 C122.667302,110.050871 118.95392,108.829647 116,107 C115.45765,95.8025089 115.510521,84.3725288 115,73 C115.467774,70.8782865 115.60839,68.789262 115,67 C114.899686,65.169487 114.255103,63.5768309 113,63 C112.193114,61.7624412 111.127808,61.3437359 110,61 C108.973575,60.9115239 107.818276,61.3718747 107,62 C106.033018,63.6353596 105.740537,65.4857671 106,67 C105.680916,97.8138703 105.701164,128.408623 106,159 C97.4554552,156.392096 89.2288697,153.781941 81,151 C80.9966596,114.777064 81.0000344,78.3890947 81,42 C87.5943519,43.2291027 94.0716771,44.9849638 101,47 Z" id="PlayStation" fill="#009BCD"></path>
    </g>
</svg>