<?xml version="1.0" encoding="UTF-8" standalone="no"?>
<svg width="200px" height="200px" viewBox="0 0 200 200" version="1.1" xmlns="http://www.w3.org/2000/svg" xmlns:xlink="http://www.w3.org/1999/xlink">
    <!-- Generator: Sketch 3.7.2 (28276) - http://www.bohemiancoding.com/sketch -->
    <title>reddit</title>
    <desc>Created with Sketch.</desc>
    <defs></defs>
    <g id="Page-1" stroke="none" stroke-width="1" fill="none" fill-rule="evenodd">
        <path d="M137.182017,47.7879303 L111,41 C109.746054,40.7624739 108.447187,41.5012672 108,43 L98,75 C97.9958742,75.0149767 97.9919486,75.0300164 97.9882225,75.0451158 C81.7728489,75.5321017 67.1252311,79.9349735 56.1449782,86.9616824 C53.2017704,83.6973489 49.0651546,82 45,82 C35.4896197,82 28,89.459985 28,99 C28,104.839977 31.3705224,110.385919 36.4561195,113.662223 C36.1549132,115.408135 36,117.189162 36,119 C36,142.794364 65.0425959,162 101,162 C135.957404,162 165,142.794364 165,119 C165,117.038758 164.818285,115.112484 164.4663,113.227917 C169.682531,110.165744 173,104.672427 173,99 C173,89.4263795 165.564173,82 156,82 C151.94734,82 147.782859,83.7584592 144.905415,86.905588 C133.910114,79.8171471 119.283435,75.4130267 103.291726,75.0275816 L112,46 L136.06271,51.7750505 C136.021189,52.1794592 136,52.5881308 136,53 C136,60.9557478 142.044096,67 150,67 C156.955904,67 163,60.9557478 163,53 C163,46.0439692 156.956031,40 150,40 C144.139169,40 139.315931,43.2798032 137.182017,47.7879303 Z M100,0 C44.771524,3.03201907e-14 0,44.771524 0,100 C0,155.228476 44.771524,200 100,200 C155.228476,200 200,155.228476 200,100 C200,44.771524 155.228476,-3.41060513e-14 100,0 Z M101,145 C110.429215,145.000006 118.052876,143.203605 123,138 C124.221181,137.366937 124.264893,135.784628 123,135 C122.366936,133.77883 120.784628,133.735119 120,135 C115.79006,138.461156 109.259407,140.000006 101,140 C100.328773,140.000006 100.161561,140.017221 100,140 C99.8384509,140.017221 99.6712387,140.000006 100,140 C90.7411949,140.000006 84.2066996,138.460599 80,135 C79.2163057,133.735358 77.6339824,133.778542 77,135 C75.7353576,135.783706 75.7785414,137.366029 77,138 C81.9431391,143.203086 89.5707295,145.000006 100,145 C99.6712387,145.000006 99.8384509,144.982791 100,145 C100.161561,144.982791 100.328773,145.000006 101,145 Z M122,100 C116.602946,100 112,104.593296 112,110 C112,115.55649 116.602946,120 122,120 C127.559558,120 132,115.55649 132,110 C132,104.593296 127.559558,100 122,100 Z M79,100 C73.5961912,100 69,104.596099 69,110 C69,115.553687 73.5961912,120 79,120 C84.553998,120 89,115.553687 89,110 C89,104.596099 84.553998,100 79,100 Z M158,53 C158,58.1943529 154.194451,62 150,62 C144.805549,62 141,58.1943529 141,53 C141,48.8053929 144.805393,45 150,45 C154.194607,45 158,48.8053929 158,53 Z" id="reddit" fill="#009BCD"></path>
    </g>
</svg>