<?xml version="1.0" encoding="UTF-8" standalone="no"?>
<svg width="200px" height="200px" viewBox="0 0 200 200" version="1.1" xmlns="http://www.w3.org/2000/svg" xmlns:xlink="http://www.w3.org/1999/xlink">
    <!-- Generator: Sketch 3.7.2 (28276) - http://www.bohemiancoding.com/sketch -->
    <title>ResearchGate</title>
    <desc>Created with Sketch.</desc>
    <defs></defs>
    <g id="Page-1" stroke="none" stroke-width="1" fill="none" fill-rule="evenodd">
        <path d="M100,0 C44.7714,0 0,44.7714 0,100 C0,155.2286 44.7714,200 100,200 C155.2286,200 200,155.2286 200,100 C200,44.7714 155.2286,0 100,0 Z M50,96 L50,67 L60,67 C69.2381429,67 74,71.6455846 74,81 C74,86.3802861 72.66668,90.2516066 70,93 C67.33332,94.8503351 63.5238343,96 59,96 L50,96 Z M31,52 L31,149 L51,149 L51,108 L61,108 C65.2272932,107.971989 68.136355,109.058813 70,111 C71.5909177,113.406173 72.5454536,116.394939 73,120 L73,139 C73.3636368,140.712895 73.5454532,142.54691 74,144 C74.0909105,146.07914 74.7272677,147.64145 76,149 L97,149 L97,148 C95.1818091,147.188604 94.0000027,145.331946 93,143 C93.0909073,139.897746 92.8181827,135.958009 93,131 C92.5454541,128.168988 92.4545459,125.791561 92,124 C92.2727268,121.53477 92.1363645,119.564902 92,118 C91.4090882,112.319301 90.0000114,108.379564 88,106 C85.4545341,103.488783 81.8636609,101.903832 77,101 C82.5000277,99.7301528 86.5908959,97.0810197 89,93 C91.8636495,88.8391484 93.1818182,83.5182399 93,77 C93.1818182,68.5741876 90.9091136,62.3023082 86,58 C81.8181591,54.0604369 75.4545864,52 67,52 L31,52 Z M150,81 L169,81 C168.92766,70.7487104 166.604279,63.1935311 162,58 C157.310615,52.6386746 149.714946,50 139,50 C133.004224,50 127.865978,51.0374276 124,53 C119.64466,55.1872003 116.33831,58.2769303 114,62 C111.33403,66.4862632 109.569154,71.6057429 109,78 C107.513825,83.874636 107,91.0013126 107,99 C107,107.510191 107.357443,114.884948 108,121 C108.787238,127.604903 110.19467,132.949911 112,137 C114.394691,141.610306 117.298918,144.8128 121,147 C124.715976,148.962572 129.519119,150 135,150 C139.974491,150 143.884026,149.210653 147,148 C150.407463,146.053217 153.199988,143.369437 156,140 L156,149 L170,149 L170,96 L139,96 L139,111 L152,111 L152,121 C151.502128,123.252156 151.100004,125.529986 150,127 C149.491485,129.409121 148.486176,131.010368 147,132 C146.073398,133.536317 144.777666,134.483533 143,135 C142.00744,135.746507 140.734048,136.062246 140,136 C136.802114,136.062246 134.545753,135.182688 133,133 C131.06063,131.664403 129.720217,129.138492 129,126 C127.843612,122.552983 127.195746,118.561142 127,114 C126.480849,109.179047 126.302128,103.946804 126,98 C126.302128,86.0847388 127.329777,77.4244736 129,72 C131.440436,66.9598295 134.791466,64.3437077 139,64 C141.404265,64.3437077 143.07978,64.8624215 144,66 C145.850007,66.9373078 146.989357,68.2453687 148,70 C148.7766,71.4028045 149.424466,73.1393681 150,75 C150.228725,76.9282909 150.429787,78.7776184 150,81 Z" id="ResearchGate" fill="#009BCD"></path>
    </g>
</svg>