<?xml version="1.0" encoding="UTF-8" standalone="no"?>
<svg width="200px" height="200px" viewBox="0 0 200 200" version="1.1" xmlns="http://www.w3.org/2000/svg" xmlns:xlink="http://www.w3.org/1999/xlink">
    <!-- Generator: Sketch 3.7.2 (28276) - http://www.bohemiancoding.com/sketch -->
    <title>RSS</title>
    <desc>Created with Sketch.</desc>
    <defs></defs>
    <g id="Page-1" stroke="none" stroke-width="1" fill="none" fill-rule="evenodd">
        <path d="M100,0 C44.771524,3.03201907e-14 0,44.771524 0,100 C0,155.228476 44.771524,200 100,200 C155.228476,200 200,155.228476 200,100 C200,44.771524 155.228476,-3.41060513e-14 100,0 Z M67,133 C70.2149369,135.628579 71.989295,139.596675 72,144 C71.989295,148.424817 70.2149369,152.392914 67,155 C64.38605,158.221476 60.4091327,160 56,160 C51.5694572,160 47.6019068,158.216103 45,155 C41.7877394,152.394257 40,148.430191 40,144 C40,139.596675 41.7877394,135.619176 45,133 C47.603245,129.791957 51.5707954,128 56,128 C60.4091327,128 64.3820356,129.795987 67,133 Z M68,132 C68.004,132.003 68.004,132.003 68,132 Z M45,155 C45.004,155.004 45.004,155.004 45,155 Z M40,79 L40,102 C55.115108,102.445215 69.4110713,108.455165 80,119 C90.8058404,130.112533 96.7190421,144.604872 97,160 L120,160 C119.981138,137.675769 111.016353,117.454408 97,103 C82.025632,88.0933396 62.0562825,79.0136373 40,79 Z M40,63 C93.4963706,62.9413333 136.984182,106.477333 137,160 L160,160 C159.983993,126.92 146.532531,96.9493333 125,75 C103.047388,53.468 73.0830712,40.0146667 40,40 L40,63 Z" id="RSS" fill="#009BCD"></path>
    </g>
</svg>