<?xml version="1.0" encoding="UTF-8" standalone="no"?>
<svg width="200px" height="200px" viewBox="0 0 200 200" version="1.1" xmlns="http://www.w3.org/2000/svg" xmlns:xlink="http://www.w3.org/1999/xlink">
    <!-- Generator: Sketch 3.7.2 (28276) - http://www.bohemiancoding.com/sketch -->
    <title>Runkeeper</title>
    <desc>Created with Sketch.</desc>
    <defs></defs>
    <g id="Page-1" stroke="none" stroke-width="1" fill="none" fill-rule="evenodd">
        <path d="M0,100 C0,155.2286 44.7714,200 100,200 C155.2286,200 200,155.2286 200,100 C200,44.7714 155.2286,0 100,0 C44.7714,0 0,44.7714 0,100 Z M103,40 C100.977862,39.8989047 99.3698199,39.6935636 98,40 C93.487751,42.5388034 89.0695667,44.530565 85,47 C81.4263754,48.4423596 78.2070034,50.3759881 75,52 C73.7169748,52.9872891 72.5573716,53.8707715 72,55 C71.025869,55.7786152 70.5445597,56.5873215 71,58 C70.3637753,61.5068344 70.2754961,65.3738571 71,69 C70.6788568,70.9972961 70.8596412,72.8003596 72,74 C74.1424052,76.3490567 74.0522478,78.9985662 74,82 C73.438285,83.0599128 73.3605712,84.5481668 73,86 C73.3676147,86.4543696 73.4103456,86.8484089 73,87 C73.2697094,88.322364 73.689505,89.2213173 74,90 C75.0266056,90.9001447 75.8476488,91.6289181 77,92 C77.5874057,92.8846397 78.4819366,93.0156736 79,92 C80.4801918,91.8607472 81.5569159,91.3863062 83,91 C84.4471194,89.942824 85.5477915,88.3704176 84,86 C82.9228951,85.354529 82.4418206,84.4349479 82,83 C81.4669932,81.3299844 80.8110039,79.2470382 80,77 C78.8629927,73.6627453 78.1166111,70.0596656 78,66 C78.0189406,65.1809396 78.4309883,64.2681563 79,63 C80.0733094,62.4078973 81.2430083,61.7006895 82,61 C83.7683559,60.4388733 85.1324568,59.963729 87,59 C88.8655385,58.6850354 91.2133886,57.8226497 94,57 C96.3986156,56.1105364 97.8035691,57.9393847 97,60 C97.0740921,61.6139587 97.2931465,63.2672357 97,65 C97.9111006,68.5280461 97.9324661,72.1372204 97,76 C96.6791837,76.6680855 96.2281617,77.4278006 95,78 C94.1679232,79.0672476 93.5166296,80.4115753 93,82 C93.4926815,82.4710808 93.3865587,82.8463674 93,83 C92.6204552,85.0626915 91.9461526,86.895056 91,89 C90.83515,90.5855697 90.2458396,92.4036353 90,94 C90.1582648,95.8665392 90.5775908,97.286815 91,99 C91.1647881,99.7209039 91.1772317,100.625952 91,102 C89.8269831,102.829852 89.1951767,104.216373 89,106 C86.2638858,110.515844 84.2285345,115.532167 83,121 C81.9649722,122.85764 81.1723381,124.930038 79,126 C77.8214864,127.004311 76.6064739,127.939598 75,129 C70.5307074,131.39711 66.9532882,135.204593 64,140 C63.0931878,142.279015 62.03149,144.675365 61,147 C59.3279406,148.883216 58.071606,150.905216 57,153 C56.1764214,153.843047 55.3485695,154.390623 54,154 C53.115764,154.468681 52.0672141,154.646362 51,155 C49.8452088,154.936324 48.9720433,155.55352 48,157 C48.0230423,157.645373 47.8610407,158.739822 48,160 C48.3583153,160.756666 48.3916548,161.684451 48,163 C48.4604468,163.283346 48.4792296,163.950704 49,165 C49.1237145,168.383821 49.7508252,172.151689 50,176 C50.4749022,177.817791 51.3945551,179.00108 53,180 C54.7026759,180.327359 55.4983623,180.021926 56,178 C56.5210858,176.971345 56.7518795,175.504891 57,174 C57.1223702,172.453606 57.5125829,170.942146 59,170 C60.437065,168.15879 61.0676975,166.014194 62,164 C62.2519531,161.423321 63.0051435,159.067524 64,157 C66.6978421,152.256342 70.2717396,148.530198 75,145 C75.7959961,144.628952 76.9607645,143.699995 78,143 C79.336554,140.730519 81.1875991,139.327823 83,138 C83.5969629,136.507431 84.89415,135.828586 86,135 C89.2214726,133.584836 91.6308364,131.357495 94,128 C97.5690189,122.929369 102.287963,118.015247 107,113 C107.777236,112.09833 108.481357,111.506919 110,112 C111.053426,112.550268 111.659641,112.964935 112,114 C112.043515,115.955742 111.618084,117.518772 111,119 C108.840578,122.432659 106.982254,125.863918 105,129 C103.180615,132.824418 101.16663,136.304199 98,139 C95.6379122,141.427647 93.6556223,144.149588 92,147 C91.4253995,149.765761 91.1323878,152.132106 92,155 C93.8399285,157.159446 95.4543103,159.59166 97,162 C98.0944677,163.139654 99.1693135,164.157452 101,165 C101.056515,164.926309 101.469502,164.938029 102,165 C103.304582,164.467339 103.689395,163.406644 104,162 C103.993441,160.863321 104.036172,159.422886 104,158 C103.295191,155.883331 103.413522,153.701699 103,152 C103.270069,149.971805 103.543358,148.507461 104,147 C104.700144,146.159399 105.075096,145.167386 105,144 C106.120828,142.059141 107.227605,140.227714 109,139 C110.176974,137.461235 111.440587,136.173634 113,135 C115.569986,131.483372 118.774097,128.387316 122,125 C124.475616,122.118787 127.266505,119.217993 130,116 C131.002639,115.186885 131.740334,113.882875 132,112 C132.505968,108.21818 131.243529,104.64112 128,102 C125.690394,100.649392 123.587189,99.3624946 122,98 C120.3326,97.069988 118.92342,96.4349777 118,95 C116.805424,94.3808636 116.567822,93.4094784 117,92 C118.308988,90.2899817 119.153979,88.2738417 120,86 C122.464213,81.5118848 124.809011,76.7095757 127,72 C127.615161,70.9614318 127.994574,69.9666058 129,69 C129.170377,68.0503234 129.887176,68.1201769 130,69 C130.67934,69.5943665 130.85449,70.0369281 131,70 C131.688211,72.7560566 132.345375,75.0417654 133,77 C133.42069,78.4589598 133.669093,79.6544387 134,81 C135.163969,82.0193773 136.343763,82.2718343 138,81 C137.910249,81.1269874 138.212417,80.8588251 138,81 C138.986504,79.8377455 139.495283,79.096783 140,78 C142.47987,74.6599153 144.850259,70.8957976 147,67 C149.195191,63.8771644 150.976974,60.5617029 152,57 C151.980915,55.2277572 152.291301,53.7104366 151,52 C151.341126,51.9540203 151.338543,51.6150668 151,51 C150.824129,50.0072649 148.986936,48.9212544 148,50 C146.563955,50.4906134 145.550858,50.9983404 145,52 C142.949909,52.6959204 141.925073,54.0808007 142,56 C142.46813,57.0507454 142.449113,57.9201633 143,59 C142.81256,60.3676133 141.749219,62.1441888 140,63 C138.828258,63.3225559 137.333382,62.7194251 137,61 C136.223084,59.6892377 135.707966,58.0929217 135,56 C134.826583,54.4914829 134.365935,52.5142545 134,51 C132.972955,47.799145 130.73968,46.6625024 128,46 C126.43161,45.580008 124.621887,45.341381 123,44 C122.185053,42.5366938 122.312307,41.0217172 124,40 C124.311971,39.3501564 125.0337,38.9563516 126,39 C127.513499,37.4748954 128.403334,35.9512458 128,34 C128.116192,31.9876472 128.389952,30.2312308 130,29 C130.343833,27.5524204 130.152483,26.3503781 129,25 C127.333654,23.2280685 125.486835,20.7745238 122,20 C120.853118,20.2689066 119.490426,19.6875756 118,20 C116.698128,20.7461605 115.306322,21.2574035 114,22 C112.333944,22.4390524 111.199697,23.5771014 110,25 C109.855788,26.1178457 109.279391,27.1377533 109,28 C107.420598,30.3978946 106.973098,32.5685093 109,35 C109.818457,36.7191652 108.975579,38.6638109 107,39 C105.531518,40.0976824 104.042042,39.792718 103,40 Z" id="Runkeeper" fill="#009BCD"></path>
    </g>
</svg>