<?xml version="1.0" encoding="UTF-8" standalone="no"?>
<svg width="200px" height="200px" viewBox="0 0 200 200" version="1.1" xmlns="http://www.w3.org/2000/svg" xmlns:xlink="http://www.w3.org/1999/xlink">
    <!-- Generator: Sketch 3.7.2 (28276) - http://www.bohemiancoding.com/sketch -->
    <title>Sina Weibo</title>
    <desc>Created with Sketch.</desc>
    <defs></defs>
    <g id="Page-1" stroke="none" stroke-width="1" fill="none" fill-rule="evenodd">
        <path d="M100,0 C44.7714,0 0,44.7714 0,100 C0,155.2286 44.7714,200 100,200 C155.2286,200 200,155.2286 200,100 C200,44.7714 155.2286,0 100,0 Z M139.537314,100.737216 C137.518821,100.133584 136.134023,99.721135 137.19107,97.0689856 C139.479954,91.3085456 139.717575,86.3401952 137.234724,82.7948839 C132.580495,76.146753 119.84688,76.5045478 105.250479,82.6172161 C105.250479,82.6076845 100.667241,84.6220409 101.83899,80.9865993 C104.084182,73.7676058 103.745488,67.723088 100.252085,64.2324114 C92.3338585,56.3087325 71.275039,64.5328644 53.2152787,82.5844466 C39.6923,96.1101514 31.8396311,110.44434 31.8396311,122.839262 C31.8396311,146.547504 62.2424233,160.9609 91.9869678,160.9609 C130.977177,160.9609 156.914197,138.306978 156.914197,120.320954 C156.914197,109.455596 147.761408,103.288178 139.537276,100.737082 L139.537314,100.737216 Z M92.066213,152.463766 C68.3334169,154.804539 47.8454601,144.078475 46.3022285,128.496056 C44.7617419,112.916362 62.7586894,98.3855002 86.4887785,96.0392558 C110.22432,93.6902854 130.712276,104.419095 132.252763,119.996043 C133.790524,135.583933 115.801773,150.117522 92.066213,152.463766 Z M94.4384022,108.029659 C83.1442203,105.090725 70.3778167,110.720049 65.4722981,120.670418 C60.4766304,130.820149 65.3083557,142.087032 76.7173164,145.771638 C88.5386493,149.581887 102.468606,143.74224 107.314037,132.786733 C112.091204,122.077063 106.125893,111.050545 94.4384022,108.029659 Z M93.375903,124.243028 C92.5455729,125.663341 90.7100854,126.34618 89.2733972,125.753471 C87.8585362,125.171704 87.4160634,123.58478 88.2190761,122.189039 C89.0466801,120.801515 90.8111578,120.124147 92.2205286,120.684067 C93.6544907,121.208492 94.1679926,122.814537 93.375903,124.243028 Z M85.8127449,133.950305 C83.5184093,137.613064 78.6019485,139.216363 74.8982231,137.525659 C71.2491323,135.86498 70.1729649,131.609512 72.4700456,128.039629 C74.7370829,124.483394 79.4869134,122.899196 83.1633406,124.439682 C86.8807152,126.023881 88.0688591,130.249305 85.8127449,133.950305 Z M150.969151,70.3999622 C146.385932,65.3168903 139.620334,63.3858205 133.37371,64.7132582 C130.819888,65.2568035 129.191997,67.7696591 129.740994,70.3262072 C130.287265,72.8691062 132.797395,74.5051941 135.34302,73.9507256 L135.34302,73.9545383 C138.396695,73.3071946 141.707111,74.2495202 143.949557,76.7295873 C146.192003,79.2178706 146.795635,82.6047488 145.831463,85.5764715 L145.835276,85.5764715 C145.034989,88.0565577 146.39247,90.7223753 148.875282,91.5281141 C151.360821,92.3229487 154.023912,90.9681936 154.824199,88.4826554 C156.788038,82.4053682 155.561654,75.4813566 150.967511,70.3983037 L150.969151,70.3999622 Z M165.428984,57.3514061 C156.013982,46.9121456 142.124993,42.9325394 129.303992,45.6584438 L129.30018,45.6584438 C126.336654,46.2921193 124.443825,49.2119524 125.080226,52.1727519 C125.711176,55.1335515 128.628264,57.0291068 131.594534,56.3954313 C140.714554,54.4588904 150.582971,57.2940453 157.280266,64.7069674 C163.966637,72.1226155 165.783004,82.2368506 162.917806,91.1028551 L162.919712,91.1047614 C161.985584,93.9945511 163.564311,97.0837214 166.456827,98.0178308 C169.338419,98.9492333 172.43306,97.3705062 173.367189,94.4916587 C173.367189,94.4878461 173.367189,94.4764083 173.369095,94.4697362 C177.386942,81.9956075 174.849495,67.7788665 165.429022,57.3505292 L165.428984,57.3514061 Z" id="Sina-Weibo" fill="#009BCD"></path>
    </g>
</svg>