<?xml version="1.0" encoding="UTF-8" standalone="no"?>
<svg width="200px" height="200px" viewBox="0 0 200 200" version="1.1" xmlns="http://www.w3.org/2000/svg" xmlns:xlink="http://www.w3.org/1999/xlink">
    <!-- Generator: Sketch 3.7.2 (28276) - http://www.bohemiancoding.com/sketch -->
    <title>Skype</title>
    <desc>Created with Sketch.</desc>
    <defs></defs>
    <g id="Page-1" stroke="none" stroke-width="1" fill="none" fill-rule="evenodd">
        <path d="M100,0 C44.7714,0 0,44.7714 0,100 C0,155.2286 44.7714,200 100,200 C155.2286,200 200,155.2286 200,100 C200,44.7714 155.2286,0 100,0 L100,0 L100,0 Z M165,115 C166.023441,110.311468 166.552894,105.582747 167,101 C166.552894,64.3749103 137.084312,34.895938 101,35 C96.8975343,34.895938 93.1332522,35.2253481 89,36 C83.5966406,32.150854 76.6362701,30 69,30 C48.0910027,30 31,47.0970289 31,68 C31,75.2325248 32.9176531,81.8271853 36,87 C35.3776728,91.7740778 34.9127872,96.1985072 35,101 C34.9127872,137.097029 64.381369,166.576001 101,167 C104.852243,166.576001 108.881252,166.194919 113,165 C118.159594,168.358691 124.299958,170 131,170 C151.908997,170 169,152.90943 169,132 C169,125.729152 167.566603,119.974164 165,115 Z M80,57 C74.4866159,59.0628468 70.1975026,62.0293698 67,66 C64.3011353,69.6899749 62.8005541,74.145109 63,79 C62.8005541,84.2750823 64.2302586,88.6874197 67,92 C69.8280848,95.6668443 73.6246409,98.4343628 78,100 C82.9402713,102.381643 88.7313975,104.108489 96,106 C100.559929,106.608528 104.612786,107.608544 108,109 C110.461903,109.425263 112.819447,110.720575 115,112 C116.313882,113.978829 117.142925,116.009531 117,119 C117.142925,121.86269 115.553569,124.533203 112,127 C108.9334,129.035413 104.482488,130.190923 99,130 C95.1038558,130.190923 91.8943591,129.621014 90,128 C87.1456212,127.383461 85.2920886,125.955479 84,124 C82.6646398,122.489661 81.3945869,120.247829 80,118 C79.1895345,115.152171 77.8922764,113.264124 76,112 C74.7980438,110.654954 72.8514407,109.980193 71,110 C67.8449695,109.980193 65.5389715,110.8347 64,113 C61.9221128,114.22277 61,116.301975 61,119 C61,122.536024 62.4153859,126.513976 65,131 C67.9681087,134.492703 71.6064452,137.709586 76,140 C82.1921285,143.346622 90.1016801,145 100,145 C107.394875,145 114.299982,143.790994 120,141 C125.876507,138.995626 130.36608,135.601137 133,131 C136.454316,127.01755 138,122.103778 138,117 C138,112.208473 137.101513,108.331094 135,105 C133.561974,102.061381 131.071267,99.4393714 128,97 C124.84271,95.4007917 121.06262,93.6810785 117,92 C112.369846,90.9099937 107.484366,89.6367926 102,88 C97.969708,87.5326227 94.9062602,86.7851074 93,86 C91.2994245,85.7893714 89.521064,85.103198 88,84 C86.1297221,83.4091629 84.813134,82.4120003 84,81 C82.9989772,80.2036918 82.5701375,78.9575952 83,77 C82.5701375,75.0352798 83.9017601,72.9831792 87,71 C89.4845518,69.3361891 93.3133246,68.3953755 98,68 C103.091443,68.3953755 106.78061,69.2441762 109,71 C111.261592,72.6386659 113.243991,75.0830694 115,78 C116.2967,80.6116868 117.571765,82.3000157 119,83 C120.122609,84.5475545 122.026257,85.1395752 124,85 C127.135821,85.1395752 129.405307,84.1944819 131,82 C132.992097,80.4790171 133.899175,78.3541621 134,76 C133.899175,73.5866123 133.206875,71.0751607 132,69 C130.495663,66.0529707 128.346452,63.6470842 125,61 C122.590407,59.1669854 118.940615,57.3531196 115,56 C110.306547,54.6754742 105.149731,54 99,54 C91.9444739,54.0007133 85.4603312,55.0192742 80,57 Z" id="Skype" fill="#009BCD"></path>
    </g>
</svg>