<?xml version="1.0" encoding="UTF-8" standalone="no"?>
<svg width="200px" height="200px" viewBox="0 0 200 200" version="1.1" xmlns="http://www.w3.org/2000/svg" xmlns:xlink="http://www.w3.org/1999/xlink">
    <!-- Generator: Sketch 3.7.2 (28276) - http://www.bohemiancoding.com/sketch -->
    <title>SlideShare</title>
    <desc>Created with Sketch.</desc>
    <defs></defs>
    <g id="Page-1" stroke="none" stroke-width="1" fill="none" fill-rule="evenodd">
        <path d="M50,103.975094 C66.9625969,112.987503 81.6503806,111.369514 90,111 C93.9018946,110.879729 96.1276695,112.125478 97.1969544,114.181254 C98.8421046,115.688256 100.442765,116.978235 102.000034,118.02919 C102.000011,118.013426 102,118.00364 102,118 C102,113.806012 104.052924,110.81671 110,111 C118.349039,111.369511 133.038192,112.987474 150,103.975332 L150,56 C149.85042,47.916039 147.180071,44.6535295 140,45 L60,45 C52.0767061,44.6535295 49.8552021,47.3985423 50,56 L50,103.975094 Z M43,99.7037209 C42.6672807,99.4735962 42.333938,99.2390497 42,99 C38.0677069,96.2531435 35.5662125,99.8859569 38,103 C42.4602404,108.950115 51.1170434,115.894674 64,121 C50.3481443,169.313669 98.6735584,176.931302 98,152 C97.9581548,152.680498 97.9706259,138.271114 97.9845352,127.997742 C97.9896935,127.998528 97.9948485,127.99928 98,128 C99.5204946,128.447736 100.797377,128.867576 102.016881,129.202339 C102.029933,139.358905 102.039805,152.654283 102,152 C101.326438,176.931302 149.684366,169.313669 136,121 C148.882539,115.894674 157.541449,108.950115 162,103 C164.433458,99.8859569 161.934007,96.2531435 158,99 C157.330872,99.4790332 156.66413,99.9399828 156,100.383505 L156,51 C156,43.5860629 150.81695,38 144,38 L55,38 C48.1809852,38 43,43.5860629 43,51 L43,99.7037209 Z M100,0 C44.7714,0 0,44.7714 0,100 C0,155.2286 44.7714,200 100,200 C155.2286,200 200,155.2286 200,100 C200,44.7714 155.2286,0 100,0 Z M103,90 C103,98.5096587 109.943453,105 119,105 C127.057238,105 134,98.5096587 134,90 C134,82.4910321 127.057238,76 119,76 C109.943453,76 103,82.4910321 103,90 Z M98,90 C98,98.5096587 91.0581551,105 83,105 C73.9425357,105 67,98.5096587 67,90 C67,82.4910321 73.9425357,76 83,76 C91.0581551,76 98,82.4910321 98,90 Z" id="SlideShare" fill="#009BCD"></path>
    </g>
</svg>