<?xml version="1.0" encoding="UTF-8" standalone="no"?>
<svg width="200px" height="200px" viewBox="0 0 200 200" version="1.1" xmlns="http://www.w3.org/2000/svg" xmlns:xlink="http://www.w3.org/1999/xlink">
    <!-- Generator: Sketch 3.7.2 (28276) - http://www.bohemiancoding.com/sketch -->
    <title>Soundcloud</title>
    <desc>Created with Sketch.</desc>
    <defs></defs>
    <g id="Page-1" stroke="none" stroke-width="1" fill="none" fill-rule="evenodd">
        <path d="M0,100 C7.5791226e-15,155.228474 44.771526,200 100,200 C155.228474,200 200,155.228474 200,100 C200,44.771526 155.228474,-2.2737368e-14 100,0 C44.771526,1.5158245e-14 0,44.771526 0,100 Z M160,95 C157.729076,94.9527931 155.168005,95.4965455 153,96 C151.277388,78.8360878 136.47424,65 118,65 C113.997026,65 109.69017,65.8678844 106,67 C104.406362,67.9109758 104.014265,68.4974829 104,70 C104,69.6405324 104,131.752189 104,132 C104.015728,132.950053 104.945862,133.88079 106,134 C106.166047,134.002842 160.413042,133.997726 160,134 C171.23084,133.997726 180,125.333499 180,115 C180,103.714589 171.23084,94.9527931 160,95 Z M100,70 C99.7193087,70.1155014 99.3540417,70 99,70 C98.463503,70 98.0013066,70.1863522 98,70 C97.1720615,70.8952284 96.8702263,71.4978285 97,72 L96,117 L96,125 L97,133 C96.8769971,134.026172 97.8192077,135 99,135 C100.105957,135 101.048524,134.026172 101,133 L102,117 L101,72 C101.054226,71.380851 100.640494,70.6922706 100,70 Z M94,73 C93.7968447,73.1274921 93.3891116,73 93,73 C92.5290314,73 92.1329368,73.1219809 92,73 C91.2146644,73.6907352 90.8208975,74.3149687 91,75 L90,116 C90,115.676045 90.809259,131.988785 91,132 C90.809647,132.012299 90.8127505,132.035079 91,132 C90.8383551,132.514185 91.0210785,132.934137 91,133 C91.708134,133.713051 92.2985905,134 93,134 C93.5342041,134 94.0653045,133.773307 94,133 C94.8408121,133.041421 95.0859951,132.536597 95,132 L95,130 L96,116 L95,75 C95.0844433,74.3256237 94.7042545,73.7098406 94,73 Z M86,80 C84.8259839,80 83.931157,80.8240067 84,82 L83,116 L84,132 C83.9315519,133.178549 84.8259839,134 86,134 C87.0618665,134 87.9559036,133.178549 88,132 L89,116 L88,82 C87.9559036,80.8232765 87.0618665,80 86,80 Z M79,79 C78.5698687,79 77.8658226,79.7613692 78,81 L77,116 L78,132 C77.8661576,133.236809 78.5698687,134 79,134 C80.3226152,134 81.0256565,133.236809 81,132 L82,116 L81,81 C81.0256565,79.7606406 80.3229502,79 79,79 Z M74,80 C73.9186792,78.7037243 73.258289,78 72,78 C71.6209578,78 70.9598854,78.7044554 71,80 L70,116 L71,132 C70.9598854,133.296641 71.6209578,134 72,134 C73.258289,134 73.917997,133.296641 74,132 L75,116 L74,80 Z M66,79 C65.6735006,79 65.05671,79.6489719 65,80 C65.0296059,80.477478 64,115.710324 64,116 L65,133 C65.05671,133.3525 65.6735006,134 66,134 C67.1906317,134 67.8067274,133.353971 68,133 L69,116 L68,80 C67.8067274,79.6478682 67.1906317,79 66,79 Z M59,82 C58.7276912,82 58.1572238,82.5850687 58,83 C58.1267705,83.3343673 57,115.736764 57,116 L58,133 C58.1572238,133.414931 58.7276912,134 59,134 C60.1214589,134 60.6919263,133.414931 61,133 L62,116 L61,83 C60.6919263,82.5847022 60.1214589,82 59,82 Z M53,88 C52.7843732,88 52.261193,88.5279358 52,89 C52.2290583,89.2020297 51,115.687179 51,116 L52,133 C52.261193,133.471328 52.7843732,134 53,134 C54.0491768,134 54.5716349,133.471696 55,133 L56,116 L55,89 C54.571996,88.5268314 54.0495378,88 53,88 Z M47,100 C47.446727,99.4494574 46.98358,99 46,99 C45.8334438,99 45.3706649,99.4501829 45,100 L44,116 L45,133 C45.3706649,133.549092 45.8330756,134 46,134 C46.9832118,134 47.4459907,133.549454 47,133 L49,116 L47,100 Z M40,98 C39.8958005,98 39.482984,98.3935183 39,99 L38,116 L39,133 C39.482984,133.606846 39.8961761,134 40,134 C40.9036136,134 41.3160544,133.606846 41,133 L43,116 L41,99 C41.3156788,98.3924252 40.9032379,98 40,98 Z M34,98 C33.9535383,98 33.6016254,98.329562 34,99 C33.5571571,98.7853705 32,115.810295 32,116 L34,132 C33.601242,132.670805 33.9531549,133 34,133 C34.827187,133 35.1783332,132.671172 35,132 L37,116 L35,99 C35.1783332,98.328828 34.827187,98 34,98 Z M22,107 C21.5405535,107 21.2655367,107.259727 21,108 L20,117 L21,125 C21.2655367,125.741013 21.5405535,126 22,126 C22.2265632,126 22.5004309,125.743233 23,125 L24,117 L23,108 C22.501197,107.257877 22.2265632,107 22,107 Z M27,101 C27.0227842,101 26.7244754,101.274542 27,102 C26.6759317,101.654448 25,116.15916 25,116 L27,130 C26.7244754,130.724716 27.0227842,131 27,131 C27.7442844,131 28.0347635,130.731765 28,130 L30,116 L28,102 C28.0347635,101.267122 27.7442844,101 27,101 Z" id="Soundcloud" fill="#009BCD"></path>
    </g>
</svg>