<?xml version="1.0" encoding="UTF-8" standalone="no"?>
<svg width="200px" height="200px" viewBox="0 0 200 200" version="1.1" xmlns="http://www.w3.org/2000/svg" xmlns:xlink="http://www.w3.org/1999/xlink">
    <!-- Generator: Sketch 3.7.2 (28276) - http://www.bohemiancoding.com/sketch -->
    <title>Spotify</title>
    <desc>Created with Sketch.</desc>
    <defs></defs>
    <g id="Page-1" stroke="none" stroke-width="1" fill="none" fill-rule="evenodd">
        <path d="M100,0 C44.771526,3.03201907e-14 0,44.771526 0,100 C1.5158245e-14,155.228474 44.771526,200 100,200 C155.228474,200 200,155.228474 200,100 C200,44.771526 155.228474,-1.51545443e-14 100,0 Z M174,81 C173.94709,80.1825882 174.096305,79.6447513 174,79 C173.862851,78.2222167 173.45305,77.4282156 173,77 C172.780088,75.9171437 172.319283,75.3123641 172,75 C171.227432,73.8304447 170.406068,73.2232357 170,73 C168.441577,71.9625245 167.306317,71.3543707 166,71 C165.240224,70.1973129 164.26354,69.7067139 163,69 C162.579574,68.8707386 161.853572,68.5410183 161,68 C159.781782,67.5518574 158.406421,66.9434337 157,66 C156.907347,66.2525461 156.787974,66.1542914 157,66 C155.868806,65.8681649 155.136836,65.5118564 154,65 C153.804341,64.9123404 153.183739,64.7174504 153,64 C151.992863,64.2653166 151.410109,64.0354706 151,64 C149.984286,63.496419 149.146779,63.1714225 148,63 C147.727061,62.6707011 147.137659,62.5158959 147,62 C145.983816,62.137858 145.414762,61.927717 145,62 C144.262275,61.5432007 143.689287,61.3445318 143,61 C142.283947,60.9934869 141.49948,60.6871156 141,60 C140.135514,60.2699378 139.553844,60.1544075 139,60 C138.322544,59.7269722 137.622588,59.5768908 137,59 C136.310982,59.2051963 135.681157,59.0202938 135,59 C134.834833,58.8262136 134.604634,58.8447039 134,59 C133.43492,58.3990483 132.397057,58.2886467 131,58 C131.239823,57.964325 131.079348,57.9110137 131,58 C130.748225,57.8427212 130.585173,57.8504142 130,58 C129.926183,57.6368991 129.414238,57.5707661 129,57 C128.62136,57.411237 128.322658,57.3753363 128,57 C127.549857,57.1511588 127.050527,57.0358985 127,57 C125.987027,56.8536953 125.403322,56.7578699 125,57 C124.251107,56.4813259 123.627928,56.4676944 123,56 C122.782283,56.1721203 122.494297,56.1321706 122,56 C121.822691,56.1216433 121.45874,55.8886931 121,56 C120.480429,55.7367222 119.84884,55.6874598 119,56 C118.521092,55.5203727 117.800381,55.355715 117,55 C116.725486,55.250577 116.360857,55.2481476 116,55 C115.826801,55.0868641 115.625224,55.0617605 115,55 C115.179612,55.0084492 114.952805,54.939077 115,55 C114.502716,54.8795573 114.244438,54.943261 114,55 C113.842912,54.7234024 113.633468,54.7800879 113,55 C113.196944,54.7759039 113.001743,54.6826429 113,55 C112.257157,54.5622538 111.70628,54.5441685 111,55 C111.069808,54.4942313 110.947722,54.5378251 111,54 C110.679541,54.3182365 110.431165,54.3438799 110,54 C109.921662,54.4092031 109.697431,54.2448154 109,54 C109.048751,54.2147181 108.657941,54.1542536 108,54 C107.571516,54.0685506 106.876036,53.8677222 106,54 C106.072985,53.9701609 105.955376,53.9966141 106,54 C105.613265,53.7548912 105.296114,53.8090123 105,54 C104.679175,53.8629984 104.403669,53.7156163 104,54 C103.53442,53.6527224 102.968079,53.7141317 102,54 C101.912583,53.4624213 101.395347,53.5154627 101,53 C100.061088,53.3248916 99.213815,53.4560779 98,53 C97.6352496,53.1734605 96.8751996,53.3115301 96,53 C95.4613141,53.0568505 94.7654268,53.1680619 94,53 C93.4051231,53.1228485 92.7238861,53.0260784 92,53 C89.5999898,53.0058336 87.1580088,52.9947664 85,53 C82.293716,53.0474029 79.8678774,52.8978613 77,53 C76.5883899,53.2328453 75.7263307,53.1190695 75,53 C73.9876977,53.3946687 73.0854859,53.2543048 72,53 C71.6189679,53.5119536 71.0147804,53.3354189 70,54 C70.1597751,53.6304532 69.8331286,53.5932027 70,54 C69.2203951,53.4900892 68.9604886,53.6915925 69,54 C68.1491627,53.7014449 67.6522748,53.6785008 67,54 C66.6644676,53.9217083 66.147639,53.8176501 66,54 C65.2040538,54.0441219 64.7338891,53.9867616 64,54 C63.6509908,54.1970376 63.0029881,54.1854306 62,54 C62.2985549,54.2341531 62.1985804,54.2012216 62,54 C61.986016,54.4345766 61.7518832,54.3352421 62,54 C61.3095268,54.4024549 61.0814982,54.4596802 61,54 C60.5094599,54.5565853 60.1714187,54.4451039 60,55 C59.5192109,54.7436472 59.1335564,54.6929003 59,55 C58.1926843,54.8311048 57.5927019,54.8867105 57,55 C56.7356618,55.106569 56.4624616,54.9790268 56,55 C55.9334245,55.2831037 55.5613351,55.1107529 55,55 C54.5782756,55.2245287 53.9279669,55.5614022 53,56 C52.9146574,55.6116093 52.559253,55.6387373 52,56 C51.7500975,55.9275631 51.1909459,55.9123121 51,56 C50.3310572,56.2284009 49.9406549,56.2020826 50,56 C49.4114821,56.2830618 49.2538562,56.3543235 49,56 C48.9227332,56.4193768 48.7585961,56.442186 49,56 C47.8951804,56.67932 47.1755543,56.7849979 46,57 C46.1724185,56.9921697 45.8568954,57.0111998 46,57 C44.9854763,57.3012403 44.365282,57.4255434 44,58 C43.1657243,57.7377182 42.5608585,57.867015 42,58 C41.3598086,58.1790548 40.7473464,58.3288664 40,59 C39.629179,58.6800461 39.0858986,58.8062387 39,59 C38.0454589,59.1242171 37.5237469,59.2772678 37,59 C36.0433926,59.8283312 35.1483703,60.3034092 34,61 C33.3592753,61.8399895 32.532214,62.8773331 32,64 C31.3843391,65.3090035 31.0437206,66.5088453 31,68 C31.0153696,68.4302118 30.9307237,69.0696775 31,70 C31.253572,70.0425077 31.1938857,70.4420051 31,71 C31.8545039,72.2618776 32.5335705,73.6728052 34,75 C33.9745862,75.0397341 34.2799355,75.2566234 35,76 C35.0375438,75.9344193 35.5751269,76.2761515 36,77 C36.3829259,76.6571587 36.6203143,76.7404323 37,77 C37.6158537,77.1678675 38.4069676,77.3909652 39,77 C39.455275,77.4623618 39.6576656,77.4448164 40,78 C40.1785637,77.6357923 40.5596061,77.6198664 41,78 C41.0375029,77.4816619 41.2002836,77.4624968 41,77 C41.6697701,77.4153939 41.9912619,77.5272802 42,77 C42.9444782,77.3383287 43.5257408,76.9675789 44,77 C44.8629838,76.6782133 45.5268576,76.375486 46,76 C47.0607939,76.087605 47.8497375,75.7296769 49,76 C48.8534158,75.4112937 49.160393,75.6422194 49,75 C49.5349241,75.339897 49.8058183,75.324511 50,75 C50.2458686,75.258108 50.4508366,75.2917144 51,75 C50.8527691,75.0512062 51.1152529,75.0599789 51,75 C51.5751083,74.969957 51.8129037,74.9480926 52,75 C52.3708344,74.7617055 52.7613723,74.841605 53,75 C53.5763607,74.4908301 54.1323923,74.5000077 55,74 C55.3611149,74.1752811 56.0877948,74.0670389 57,74 C57.5269114,73.8590574 58.2430106,73.6316408 59,74 C59.0542009,73.6668667 59.1237896,73.6633576 59,74 C59.6337,73.4849335 60.0931484,73.3857339 61,73 C60.6859412,73.397341 60.8437028,73.4433641 61,73 C61.1624816,73.148195 61.5138165,73.3839794 62,73 C62.0134174,73.0489954 62.2881098,73.1716789 63,73 C62.6737643,73.1112145 62.8205382,73.1705992 63,73 C63.2219281,72.8927056 63.6168068,73.1044662 64,73 C64.2722703,72.7901319 64.6157374,72.902693 65,73 C65.0490053,72.8458726 65.1755672,72.8937853 65,73 C65.41594,72.6763562 65.6392208,72.7419493 66,73 C66.0848328,72.6893128 66.3113692,72.6102231 67,73 C67.022585,72.548409 67.5171669,72.673117 68,72 C68.7579624,72.5148026 69.5151637,72.2134251 70,72 C70.4081512,72.3280106 70.5528903,72.3601324 71,72 C70.9381379,72.100594 71.2798416,72.1587641 72,72 C71.963656,72.2348845 72.2761948,72.0560555 73,72 C73.398703,72.0066582 74.1664851,72.0713066 75,72 C75.7915786,71.7943577 76.6676098,71.890453 78,72 C78.9533214,71.6499448 80.3875546,71.8526627 82,72 C82.7531644,71.5411627 83.7160119,71.6407671 85,72 C85.6148482,71.6407671 86.5650802,71.6198475 88,72 C88.4449254,71.6731588 89.3718256,71.6423867 90,72 C91.7703985,71.9067838 93.2557719,71.680447 95,72 C95.4910215,72.0138113 96.2669426,71.8797908 97,72 C97.8460506,72.1599788 98.6796232,72.0865576 99,72 C100.447692,72.2232775 101.396975,72.4189773 102,72 C102.402281,72.3114099 102.460611,72.2972385 102,72 C102.76908,72.5100789 103.085417,72.466755 103,72 C103.701949,72.4181675 103.982203,72.5516482 104,73 C104.759345,72.6215602 105.234664,72.5969965 106,73 C106.338588,72.8302166 106.989304,72.8107816 108,73 C107.693873,72.8592342 107.788693,72.8263026 108,73 C108.054975,73.0707249 108.332109,72.9585687 109,73 C108.863452,73.0284807 109.136381,73.0924543 109,73 C109.913251,73.1769426 110.434285,73.1490047 111,73 C111.217938,73.3711577 111.509044,73.3667038 112,73 C112.131138,73.4309473 112.453715,73.4694125 113,74 C113.155842,73.6128806 113.573917,73.5868323 114,74 C114.613136,73.8946882 115.319739,73.9247855 116,74 C116.687639,74.1569259 117.362772,74.3584291 118,74 C118.351122,74.5597974 118.714666,74.3896061 119,75 C119.572791,74.7384915 120.177657,74.7367369 121,75 C121.112289,74.9601046 121.493467,74.9680675 122,75 C122.419553,75.1829323 122.990371,75.3409767 124,75 C123.893125,75.4694637 124.196033,75.5754115 125,76 C125.165391,75.7982393 125.82194,75.978418 126,76 C127.18455,76.196387 127.850865,76.4101721 129,77 C129.357943,76.7407022 130.174559,76.9573216 131,77 C131.476126,77.309986 131.973421,77.3946093 132,78 C132.905204,77.7309429 133.378218,77.8646935 134,78 C134.610332,78.1317899 135.359801,78.3604212 136,79 C137.067234,78.8649216 138.029675,79.1618453 139,79 C139.704145,79.7006269 140.43815,79.8955169 141,80 C142.052663,80.5882939 143.030703,80.8316364 144,81 C144.624055,81.5163156 145.331337,81.7151195 146,82 C146.610657,82.3351503 147.273174,82.5327395 148,83 C148.511663,83.0843428 149.126839,83.3531938 150,84 C150.386761,83.8586389 151.016044,84.1382871 152,84 C152.867809,85.010838 154.08785,85.610354 155,86 C156.257174,86.6993893 157.206863,87.1903932 158,88 C158.825038,88.0842686 159.478331,88.5152129 160,89 C160.383528,89.0530497 160.623493,89.18815 161,89 C161.109258,89.378991 161.37147,89.398696 162,89 C161.861847,89.5899418 162.118498,89.6697064 162,90 C162.639125,89.8056164 162.884245,89.8527193 163,90 C163.422914,89.8832215 163.698284,89.9964574 164,90 C164.676867,89.962986 165.384013,90.083915 166,90 C166.712575,89.6849574 167.351082,89.5868376 168,89 C169.10857,88.9090417 170.059345,88.3486657 171,88 C171.937427,86.7194991 172.957926,85.4243718 174,84 C173.844809,82.7562421 174.041367,81.9139235 174,81 C173.986157,80.9292164 173.991583,80.8163854 174,81 Z M160,113 C159.986911,112.600239 160.012796,112.072337 160,112 C159.734559,110.982784 159.618276,110.427032 159,110 C159.074133,109.182044 158.668499,108.531221 158,108 C157.922421,107.529468 157.516516,107.224223 157,107 C156.716226,106.507961 156.211657,106.223432 156,106 C155.141804,105.567258 154.572182,105.19822 154,105 C153.531737,104.59651 153.029608,104.411854 153,104 C151.912997,103.651966 151.167867,103.306799 150,103 C149.612689,102.470222 148.771606,102.040409 148,102 C146.925857,101.087359 145.942605,100.509383 145,100 C143.918096,99.660459 142.972385,99.1620523 142,99 C141.482261,98.6105535 141.045185,98.2693651 141,98 C139.51535,97.8417477 138.615313,97.2043688 138,97 C136.278683,96.3573655 134.915277,95.9411348 134,95 C132.024476,94.8930128 130.450324,94.3817103 129,94 C128.121149,93.614688 127.354877,93.388601 127,93 C126.076717,93.0421994 125.583533,92.8572689 125,93 C124.509071,92.6396876 123.968045,92.4514646 123,92 C122.818908,92.102868 122.207679,91.9479819 122,92 C120.99647,91.6561814 120.389849,91.5302422 120,91 C118.978466,91.1018017 118.131148,90.9170085 117,91 C116.523521,90.5690978 115.765652,90.2810014 115,90 C114.464995,90.0151296 113.869216,90.1344838 113,90 C112.702595,89.9664276 112.113593,89.5093147 111,90 C110.831232,89.3348106 110.150884,89.3807688 110,89 C109.269278,89.1623644 109.022889,89.0478118 109,89 C108.476984,89.064686 108.207285,89.0024023 108,89 C107.34289,88.8202156 106.737354,88.7937382 106,89 C105.835012,88.5869947 105.509204,88.6366571 105,89 C104.886048,88.4326574 104.548856,88.4798503 104,88 C103.875962,88.300819 103.498383,88.3551458 103,88 C102.781036,88.1615724 102.402643,88.1884614 102,88 C101.410717,88.0009244 100.764793,88.0069607 100,88 C100.061135,87.95771 99.9670788,87.991184 100,88 C99.6779987,87.7275072 99.3765856,87.8648332 99,88 C98.8253954,87.7822455 98.5525786,87.7152974 98,88 C97.7749219,87.6475262 97.2783493,87.6900547 97,88 C96.2219126,87.4512091 95.6388734,87.5369521 95,87 C94.3983905,87.3145691 93.7089622,87.4144425 93,87 C92.1746557,87.1572136 91.3037562,87.3000271 90,87 C89.6177944,87.0393685 88.76492,87.09932 88,87 C87.104573,87.1994677 86.3015727,86.9851789 85,87 C83.737935,87.0338809 81.9932899,86.9275596 80,87 C79.6046182,87.2005652 78.9425665,87.1271693 78,87 C77.650312,87.1562533 77.018483,87.1450038 76,87 C75.5515336,87.3865932 74.699879,87.2247105 74,87 C73.2378086,87.523096 72.5899873,87.3614876 72,88 C71.4708014,87.6535625 70.9530865,87.5610973 70,88 C69.8944814,87.7747002 69.3137461,87.696091 69,88 C68.1194781,87.9283516 67.4721989,87.9161418 67,88 C66.7910378,87.964295 66.7280175,87.9417961 67,88 C66.4325676,88.212881 66.1052688,88.0509983 66,88 C65.5113874,88.1456585 65.2130914,88.2338709 65,88 C64.4296071,88.2131554 63.9746414,88.473814 63,88 C63.1151261,88.6806947 62.6087955,88.3449938 62,89 C61.792378,88.5513257 61.3788837,88.7698673 61,89 C60.6025823,88.8296816 60.2323213,88.8461443 60,89 C59.5060296,89.0830693 59.0822352,89.1081748 59,89 C58.2860113,89.2409735 57.9115488,89.4313915 58,89 C56.7740668,89.6334705 55.98096,89.6827213 55,90 C54.4951723,90.0229494 53.7585805,90.1678207 53,90 C52.7113597,90.3517908 52.4060163,90.4426098 52,91 C51.5061139,90.6724009 50.921855,90.886141 50,91 C49.4502977,91.0795771 48.6378105,91.3933278 48,92 C47.244317,91.7253246 46.7027492,91.919721 46,92 C45.3980263,92.2367642 44.6549291,92.4827436 44,93 C43.2205064,92.8519186 42.5583191,93.1369968 42,94 C41.4383201,93.8195108 40.9601792,94.1362796 41,95 C39.7278279,95.2966221 39.1693192,96.2056347 39,97 C38.3164448,97.9466971 38.1233181,98.73663 38,100 C37.986842,100.298112 37.9516048,101.085987 38,102 C38.3004525,102.565979 38.485041,103.238753 39,104 C39.118903,104.608994 39.5612646,105.280396 40,106 C40.490712,106.136865 40.784129,106.490538 41,107 C41.7471872,107.172503 42.3635662,107.591203 43,108 C43.5757239,107.978076 44.0805637,108.231189 45,108 C45.5368064,108.257941 46.4957988,108.387447 47,108 C48.0776755,107.971079 48.7031347,107.791362 49,108 C50.0333369,107.386518 50.7498706,107.206252 51,107 C52.0835965,106.886465 52.6967228,106.715665 53,107 C53.9373412,106.381747 54.5800125,106.260061 55,106 C55.7211538,105.934924 56.2329056,105.725162 57,106 C57.2840567,105.521848 57.8654695,105.573157 58,105 C58.7415191,105.236496 59.1539292,105.362435 59,105 C59.9883718,104.987224 60.5437634,104.979953 61,105 C61.6138883,104.744811 62.1700931,104.658382 63,105 C63.3147581,104.479625 63.9152803,104.43257 65,104 C64.7384742,104.238585 65.0297227,104.336812 65,104 C65.4524329,104.106609 65.6611452,104.149549 66,104 C66.121261,104.172597 66.3366142,104.016476 67,104 C67.1367684,104.047481 67.6841638,103.776396 68,104 C68.3283259,103.883677 68.4238728,103.894241 68,104 C68.6880158,103.621921 68.9716748,103.787508 69,104 C69.4762436,103.68983 69.727376,103.630015 70,104 C70.4593599,103.555522 70.9335705,103.621373 71,103 C71.8731825,103.364967 72.3707038,103.431915 73,103 C73.5214676,103.230933 74.2104893,103.346721 75,103 C75.5614271,103.079477 76.2546501,103.207886 77,103 C77.5311834,102.962043 78.1578624,103.051902 79,103 C79.3773386,103.051902 79.9901938,103.013078 81,103 C81.201945,103.112677 81.7727867,102.894409 82,103 C83.5262411,102.947227 84.6809352,102.885355 86,103 C86.6622113,103.135724 87.5084448,103.037086 88,103 C89.1613379,103.074813 89.9770777,103.000319 91,103 C91.3937464,103.29404 92.0186636,103.183466 93,103 C93.347917,103.440283 94.0892523,103.267426 95,103 C95.2774217,103.559363 95.7714193,103.430817 96,104 C96.6848745,103.723853 97.1519021,103.545233 98,104 C98.0385229,103.852398 98.5273704,103.733456 99,104 C99.3558499,103.958308 99.7602639,103.845676 100,104 C100.389111,104.086168 100.736062,103.920856 101,104 C101.214609,104.180691 101.461269,104.131303 102,104 C101.977629,104.155586 102.22212,104.209501 102,104 C102.763824,104.343123 103.066321,104.299634 103,104 C103.66603,104.504319 104.004171,104.468787 104,105 C104.914916,104.662224 105.52113,104.691719 106,105 C106.359368,104.883783 106.613346,104.847977 107,105 C107.119135,105.050742 107.416753,104.968978 108,105 C107.963606,105.21235 108.285891,105.200964 109,105 C108.880721,105.292469 109.190807,105.299603 109,105 C109.792007,105.501544 110.127573,105.457781 110,106 C110.844378,105.651354 111.250961,105.746426 112,106 C112.179595,105.890337 112.661124,106.109153 113,106 C113.217735,106.085694 113.245518,106.163617 113,106 C113.462498,106.237974 113.645053,106.337847 114,106 C114.395198,106.327832 114.897192,106.69687 115,107 C115.616707,106.902379 115.927336,106.659143 116,107 C116.316706,107.01309 116.626929,106.82569 117,107 C117.04476,107.142596 117.326793,107.109808 118,107 C117.920403,107.268398 118.286056,107.37129 119,107 C119.046094,107.553751 119.442648,107.641963 120,108 C120.772714,108.026503 121.721,108.302664 123,109 C123.516603,108.81136 124.355925,109.086012 125,109 C125.489206,109.471924 125.77815,109.584007 126,110 C126.412283,109.726135 126.729418,109.863049 127,110 C127.512631,110.15581 127.98901,110.310559 128,110 C128.957218,110.643516 129.445253,110.834894 130,111 C130.526491,111.225608 131.12105,111.434135 132,112 C132.42496,112.053542 133.246798,112.197864 134,113 C135.447087,113.109484 136.818489,113.896947 138,114 C138.95264,114.749712 139.537713,115.238379 140,115 C140.859376,115.900863 141.609114,116.103628 142,116 C143.569248,117.211153 144.892945,117.903544 146,119 C146.743979,118.952215 147.302352,119.268298 148,120 C148.377627,120.03093 148.978827,120.354284 150,121 C150.146668,120.717697 150.694876,120.994819 151,121 C151.443259,120.870937 151.596269,120.954485 152,121 C152.001632,120.980825 152.277973,121.036524 153,121 C152.662871,120.9147 152.807478,120.878208 153,121 C153.506665,120.944333 154.017603,120.762284 155,121 C155.785695,120.242064 156.889837,119.599609 158,119 C158.428074,117.977489 158.947415,117.212936 159,116 C159.719786,115.47256 160.009002,114.583577 160,114 C159.998431,113.452867 159.999786,113.292905 160,113 Z M80,132 C80.766555,132.432709 81.2870518,132.399582 82,132 C82.3366887,132.485872 82.8347666,132.274956 83,132 C84.0389049,132.316765 84.7172793,132.335599 85,132 C86.0807809,132.24076 86.7438943,132.423492 87,132 C88.8262865,132.479461 90.2293588,132.305812 92,133 C92.1823696,132.653644 92.7551321,132.580177 93,133 C94.0821692,132.795368 94.861969,132.71549 96,133 C96.327301,132.892745 97.0256634,133.067463 98,133 C97.7810185,132.96167 97.8489505,132.947912 98,133 C98.0661167,133.194894 98.3278507,133.064257 99,133 C98.7883836,133.139861 99.0147335,133.20705 99,133 C99.788726,133.286127 100.346903,133.266491 101,133 C101.22043,133.467924 101.583184,133.414092 102,134 C102.594465,133.749903 103.332669,133.699144 104,134 C104.317615,133.976581 104.621621,134.015719 105,134 C105.22423,134.0419 105.485019,134.248275 106,134 C105.935017,134.154772 106.083441,134.277128 106,134 C106.588137,134.354735 106.994513,134.309453 107,134 C107.56552,134.589562 107.814559,134.513824 108,135 C108.707939,134.85244 109.40306,134.950217 110,135 C110.580323,135.179167 111.06341,135.337989 112,135 C112.295909,135.581231 113.012099,135.863477 114,136 C114.97902,136.273289 116.149125,136.741874 117,137 C117.921569,137.152887 118.446522,137.368345 119,138 C119.520064,137.705224 120.006932,138.024471 121,138 C121.38637,138.516566 122.283261,138.747385 123,139 C124.57134,139.619103 125.988053,140.212715 127,141 C128.345279,141.194098 129.226369,141.712774 130,142 C130.469673,142.191511 130.701965,142.526119 131,143 C131.523767,142.624565 131.840738,143.111316 132,143 C132.923058,143.607818 133.612101,143.832493 134,144 C135.254354,144.791302 136.346127,145.295686 137,146 C138.400563,146.686747 139.581202,146.887645 141,147 C141.131483,147.024561 141.414421,146.863335 142,147 C142.199352,146.885909 142.624366,146.681938 143,147 C144.247441,146.060542 145.219962,145.287404 146,144 C146.231379,143.736853 146.519313,143.213635 147,143 C146.92569,141.91247 147.061148,141.118628 147,140 C146.933928,139.959722 146.88855,139.597062 147,139 C146.604262,138.732825 146.417213,138.201326 146,138 C145.658211,136.78021 144.889351,136.073592 144,136 C143.046004,134.905603 142.065109,134.334699 141,134 C140.041465,133.206782 138.986156,132.657384 138,132 C136.381917,131.306796 134.815024,130.534593 133,130 C132.976944,129.743021 132.76518,129.59208 133,130 C131.799816,129.232226 131.101319,128.860216 130,129 C129.861121,128.43825 129.389649,128.216513 129,128 C128.424015,127.834619 127.921751,127.671122 127,127 C126.47276,127.002039 125.436494,126.688136 124,126 C122.907749,125.738677 121.340047,125.289995 120,125 C119.25968,124.675278 118.713658,124.561604 118,124 C117.149602,124.046668 116.064716,123.817853 115,124 C114.464465,123.339517 113.905343,123.189778 113,123 C112.759413,123.009984 112.203938,122.806949 112,123 C111.146468,122.612996 110.659329,122.555692 110,122 C109.719356,122.26837 109.21547,122.310313 109,122 C108.590172,122.09432 108.426082,122.021121 108,122 C107.568086,122.015778 106.912941,121.726719 106,122 C105.941095,121.55868 105.578611,121.713361 105,122 C105.067838,121.446476 104.796515,121.577381 105,121 C104.323557,121.33641 104.073708,121.369002 104,121 C103.631272,121.320781 103.451651,121.238231 103,121 C103.064992,121.194819 102.823111,121.279907 103,121 C102.454145,121.080745 102.251159,121.101182 102,121 C101.808048,121.046416 101.582103,120.978693 101,121 C100.988137,120.898681 100.62957,120.97001 100,121 C99.902036,120.713144 99.4879615,120.783271 99,121 C98.635638,120.600539 98.147419,120.66706 98,121 C97.2503927,120.470837 96.8084972,120.506101 96,120 C95.7737161,120.332185 95.1542251,120.40859 95,120 C93.8964705,120.17737 93.230656,120.309477 93,120 C92.0515026,120.054213 91.4883289,120.106708 91,120 C90.3926387,120.202482 89.8707914,119.992367 89,120 C88.4642077,120.024025 87.6086428,120.009865 87,120 C85.4704735,120.009865 84.1869237,119.985955 83,120 C81.6403521,120.047 80.3742242,119.906344 79,120 C78.541141,120.225591 77.9404224,120.163211 77,120 C76.7589731,120.112185 76.1928282,120.33873 76,120 C75.1616937,120.257649 74.7274962,120.22853 74,120 C73.9899682,120.49862 73.6181655,120.393229 73,120 C72.9391158,120.43811 72.5999961,120.517187 72,121 C71.4435317,120.595997 70.6288881,120.633265 70,121 C69.769947,120.67975 69.7053913,120.658377 70,121 C69.4373098,120.921255 69.1319535,120.767776 69,121 C68.5837708,120.855135 68.3113676,120.912439 68,121 C67.6928219,120.978025 67.355863,120.932609 67,121 C66.6722215,121.176519 66.2869134,121.073933 66,121 C65.5545175,121.299543 65.1461153,121.221801 65,121 C64.4319516,121.41749 64.0783812,121.360854 64,121 C63.3875818,121.556009 63.0067305,121.481473 63,122 C62.383728,121.673021 62.094308,121.658061 62,122 C61.5341055,121.806464 61.2236172,121.815146 61,122 C60.3329384,121.931758 59.740323,122.006828 59,122 C58.9050162,122.194903 58.6517906,122.153628 58,122 C58.1495261,122.361873 57.8258025,122.214272 58,122 C56.7830533,122.44616 56.0155434,122.627423 55,123 C54.8909517,122.891369 54.5024024,122.852765 54,123 C53.8159247,123.073032 53.4558717,123.131539 53,123 C52.1738074,123.359687 51.2408568,123.561387 50,124 C49.7813321,123.849377 49.2351752,123.907081 49,124 C48.0700673,124.237415 47.3862907,124.353493 47,125 C46.0339986,124.70787 45.4103208,124.980632 45,125 C44.3143605,125.673225 43.8115558,126.013977 43,127 C43.1079263,127.010321 42.8225579,127.490661 43,128 C42.2414221,128.487806 42.1205491,129.052967 42,130 C41.9956245,130.402486 41.9221553,131.250427 42,132 C42.3138109,132.496825 42.394708,132.977699 43,133 C43.1553301,134.061536 43.5360463,134.908275 44,135 C44.6640144,135.5091 44.8973871,135.741389 45,136 C45.4236912,136.042603 45.7359352,136.093629 46,136 C46.2353636,136.468844 46.5833968,136.362785 47,137 C46.9770782,136.644363 47.2347605,136.521607 47,137 C47.8959832,136.847799 48.4536197,136.755098 49,137 C49.5443129,136.577709 50.1631288,136.494758 51,136 C51.0436785,136.186598 51.3582185,136.179919 52,136 C52.2883329,135.905554 52.9360502,135.747934 54,136 C54.1936698,135.591917 54.7739953,135.280952 55,135 C56.0570049,135.124134 56.7459136,135.103563 57,135 C57.7064151,134.879823 58.0395924,134.93312 58,135 C58.6103291,134.659556 58.9539056,134.65969 59,135 C59.624447,134.531991 59.9961146,134.490983 60,134 C60.5444324,134.403357 60.7241888,134.328154 61,134 C61.1108474,134.284741 61.3305797,134.35006 62,134 C62.0319133,134.133266 62.5579472,134.061803 63,134 C63.161502,134.032149 63.2602262,134.063673 63,134 C63.5160178,133.793048 63.8270463,133.999824 64,134 C64.3212076,133.74643 64.5932057,133.777286 65,134 C64.9845911,133.764596 65.1489514,133.809344 65,134 C65.3678734,133.56156 65.5753158,133.668154 66,134 C65.9694023,133.594019 66.1730632,133.524961 66,134 C66.7916089,133.46592 67.1967698,133.46966 68,133 C68.395506,133.245119 69.2017763,133.187147 70,133 C70.7180236,133.065993 71.4344831,132.874311 72,133 C72.2115818,132.971288 72.2718157,132.985046 72,133 C72.5742009,132.754093 72.8927924,132.863625 73,133 C73.5114732,132.795502 73.828309,132.726977 74,133 C74.8273008,132.651507 75.5197209,132.805653 76,133 C77.1419853,132.666868 78.0793926,132.389564 79,132 C79.4378973,132.446734 79.8437335,132.432709 80,132 Z" id="Spotify" fill="#009BCD"></path>
    </g>
</svg>