<?xml version="1.0" encoding="UTF-8" standalone="no"?>
<svg width="200px" height="200px" viewBox="0 0 200 200" version="1.1" xmlns="http://www.w3.org/2000/svg" xmlns:xlink="http://www.w3.org/1999/xlink">
    <!-- Generator: Sketch 3.7.2 (28276) - http://www.bohemiancoding.com/sketch -->
    <title>Stack Overflow</title>
    <desc>Created with Sketch.</desc>
    <defs></defs>
    <g id="Page-1" stroke="none" stroke-width="1" fill="none" fill-rule="evenodd">
        <path d="M100,0 C44.771524,3.03201907e-14 0,44.771524 0,100 C0,155.228476 44.771524,200 100,200 C155.228476,200 200,155.228476 200,100 C200,44.771524 155.228476,-3.41060513e-14 100,0 Z M127,113 L127,162 L54,162 L54,113 L45,113 L45,171 L48,171 L136,171 L136,168 L136,113 L127,113 Z M131,95 L100,49 L110,42 L141,88 L131,95 Z M124,106 L76,78 L82,68 L130,96 L124,106 Z M119,121 L66,107 L69,95 L122,109 L119,121 Z M118,137 L63,132 L64,120 L119,125 L118,137 Z M143,87 L134,32 L146,30 L155,85 L143,87 Z M117,152 L62,152 L62,140 L117,140 L117,152 Z" id="Stack-Overflow" fill="#009BCD"></path>
    </g>
</svg>