<?xml version="1.0" encoding="UTF-8" standalone="no"?>
<svg width="200px" height="200px" viewBox="0 0 200 200" version="1.1" xmlns="http://www.w3.org/2000/svg" xmlns:xlink="http://www.w3.org/1999/xlink">
    <!-- Generator: Sketch 3.7.2 (28276) - http://www.bohemiancoding.com/sketch -->
    <title>Steam</title>
    <desc>Created with Sketch.</desc>
    <defs></defs>
    <g id="Page-1" stroke="none" stroke-width="1" fill="none" fill-rule="evenodd">
        <path d="M100,0 C44.7714,0 0,44.7714 0,100 C0,155.2286 44.7714,200 100,200 C155.2286,200 200,155.2286 200,100 C200,44.7714 155.2286,0 100,0 Z M158,64 C146.411321,64 136.741767,73.5839766 137,85 L123,105 C122.57313,104.711699 122.013731,104.679389 121,105 C118.430267,104.679384 115.609465,105.507626 113,107 L52,82 C50.4008907,75.1432098 43.9135585,69.6839694 36,70 C27.2722451,69.6839672 20,76.9652477 20,86 C19.9999991,94.7678769 27.2722422,102.026869 36,102 C39.2081184,102.026865 42.0290533,101.198677 44,100 L106,124 C107.221469,131.535401 113.709484,137 121,137 C129.831725,137 136.748177,130.585772 138,122 L158,107 C170.286978,107.265036 180.000007,97.5885594 180,86 C180.000007,73.6919347 170.287842,64 158,64 Z M159,71 C166.499773,71 173,77.5050289 173,86 C172.999993,93.5172602 166.499773,100 159,100 C150.500234,99.9999986 144,93.5172616 144,86 C143.999993,77.5050275 150.500227,71 159,71 Z M170,86 C170,91.8479996 164.848002,97 158,97 C152.152005,97 147,91.8479996 147,86 C147,79.1519997 152.152005,74 158,74 C164.848002,74 170,79.1519997 170,86 Z M36,74 C40.1651106,73.9999978 44.0419734,76.5726244 46,80 L40,78 C35.5148498,76.2791678 30.3175936,78.6263543 28,83 C26.5788193,88.1777651 28.7293865,93.5834602 33,96 L38,98 C37.3887106,97.8888041 36.5444968,98 36,98 C29.2051537,98.0000014 24,92.6569268 24,86 C24,79.3655647 29.2051502,74 36,74 Z M121,109 C127.800389,108.999994 133,114.347687 133,121 C132.999972,127.652314 127.800417,133 121,133 C116.833295,133 112.948616,130.420068 111,127 C112.918733,127.402325 114.840772,128.190512 117,129 C121.512871,130.957884 126.929138,128.594267 129,124 C130.752426,118.810547 128.431005,113.261823 124,111 L119,109 C119.624616,109.111307 120.467931,109 121,109 Z" id="Steam" fill="#009BCD"></path>
    </g>
</svg>