<?xml version="1.0" encoding="UTF-8" standalone="no"?>
<svg width="200px" height="200px" viewBox="0 0 200 200" version="1.1" xmlns="http://www.w3.org/2000/svg" xmlns:xlink="http://www.w3.org/1999/xlink">
    <!-- Generator: Sketch 3.7.2 (28276) - http://www.bohemiancoding.com/sketch -->
    <title>Svbtle</title>
    <desc>Created with Sketch.</desc>
    <defs></defs>
    <g id="Page-1" stroke="none" stroke-width="1" fill="none" fill-rule="evenodd">
        <path d="M100,0 C44.771524,0 0,44.771526 0,100 C0,155.228474 44.771524,200 100,200 C155.228476,200 200,155.228474 200,100 C200,44.771526 155.228476,-2.2737368e-14 100,0 Z M100,185 C146.944206,185 185,146.944206 185,100 C185,53.0557939 146.944206,15 100,15 C53.0557939,15 15,53.0557939 15,100 C15,146.944206 53.0557939,185 100,185 Z M101,178 C143.30207,178 178,143.30207 178,101 C178,57.6979298 143.30207,23 101,23 C57.6979298,23 23,57.6979298 23,101 C23,143.30207 57.6979298,178 101,178 Z" id="Svbtle" fill="#009BCD"></path>
    </g>
</svg>