<?xml version="1.0" encoding="UTF-8" standalone="no"?>
<svg width="200px" height="200px" viewBox="0 0 200 200" version="1.1" xmlns="http://www.w3.org/2000/svg" xmlns:xlink="http://www.w3.org/1999/xlink">
    <!-- Generator: Sketch 3.7.2 (28276) - http://www.bohemiancoding.com/sketch -->
    <title>Swarm</title>
    <desc>Created with Sketch.</desc>
    <defs></defs>
    <g id="Page-1" stroke="none" stroke-width="1" fill="none" fill-rule="evenodd">
        <path d="M100,200 C155.228478,200 200,155.228478 200,100 C200,44.7715223 155.228478,0 100,0 C44.7715223,0 0,44.7715223 0,100 C0,155.228478 44.7715223,200 100,200 Z M142.382899,151.084548 C134.194286,144.795242 127.703377,136.338017 123.095626,125.948594 C118.419699,115.411712 116.512166,104.751476 117.426016,94.2656369 C117.68,91.3469568 118.527792,88.5346167 119.890265,85.9633141 C119.647231,86.0221556 119.128312,86.151536 119.110649,86.1561441 C114.804925,87.2362046 110.632374,89.1152334 106.928229,91.5603458 C101.558878,95.1050144 96.8246649,100.359986 94.7836052,106.570599 C94.2339532,108.244037 93.8206545,110.083012 93.6835948,111.842939 C93.0300883,120.237424 94.3922078,128.909101 98.0440727,137.140885 C101.57654,145.101856 106.848748,151.740666 113.209309,156.808478 C117.088312,159.897303 124.075886,161.845807 129.787532,161.845807 C135.153704,161.845807 140.448519,160.241135 145.201808,157.813392 C146.687917,157.054833 149.962514,155.000343 150.176582,154.855366 C147.341777,154.121974 144.674764,152.845893 142.382899,151.084548 Z M164.593288,107.177447 C160.162514,97.1878617 152.031127,90.0255043 142.577184,86.6137608 C141.625891,86.2702824 140.64987,86.1107723 139.680561,86.1107723 C134.770784,86.1107723 130.041517,90.2130173 129.595366,95.3336455 C128.849309,103.87736 130.531823,112.573141 134.253984,120.960536 C137.921039,129.223867 143.120125,136.213599 149.807792,141.347697 C151.545413,142.685101 153.675844,143.313925 155.804156,143.313925 C159.636883,143.313925 163.460779,141.270424 164.97974,137.618352 C168.885236,128.226043 169.066452,117.258484 164.593288,107.177447 Z M110.264291,77.3047522 C99.6909091,50.9543948 118.207751,35.8317752 128.398919,39.7578501 C135.97147,42.674049 140.058182,65.385804 110.796281,78.4610231 L110.780738,78.4666945 C110.712208,78.2738646 110.365673,77.4965187 110.264291,77.3047522 Z M101.2784,79.996219 C82.1564468,40.7822594 39.6809974,42.1802767 32.9760208,59.7075994 C27.8292156,73.1628069 50.3448104,105.219017 102.161517,82.0687867 L102.185891,82.0567349 C102.015626,81.7362968 101.408395,80.3584841 101.2784,79.996219 Z M88.2344104,141.522095 C84.852426,133.895386 83.0176623,125.646942 82.8166649,117.354899 C77.3720727,125.806807 73.2571013,134.30515 70.5169662,140.645499 C70.3823792,140.955657 68.3755844,145.943715 67.7838961,147.495571 C67.0576208,149.415363 68.0488312,151.646378 69.9563636,152.387213 C71.5018182,152.989807 76.5401766,154.828781 76.855626,154.934767 C83.3246338,157.114029 92.2596571,159.700573 102.051304,161.29851 C96.2534649,155.686945 91.5287896,148.944631 88.2344104,141.522095 Z" id="Swarm" fill="#009BCD"></path>
    </g>
</svg>