<?xml version="1.0" encoding="UTF-8" standalone="no"?>
<svg width="200px" height="200px" viewBox="0 0 200 200" version="1.1" xmlns="http://www.w3.org/2000/svg" xmlns:xlink="http://www.w3.org/1999/xlink">
    <!-- Generator: Sketch 3.7.2 (28276) - http://www.bohemiancoding.com/sketch -->
    <title>Tumblr</title>
    <desc>Created with Sketch.</desc>
    <defs></defs>
    <g id="Page-1" stroke="none" stroke-width="1" fill="none" fill-rule="evenodd">
        <path d="M100,0 C44.771524,0 0,44.771526 0,100 C0,155.228474 44.771524,200 100,200 C155.228476,200 200,155.228474 200,100 C200,44.771526 155.228476,-2.2737368e-14 100,0 Z M84,24 L95,24 L105,24 L106,44 L106,63 L124,63 L141,63 L141,75 L141,86 L124,87 C113.758223,86.7073205 105.646508,86.9842189 106,87 C105.431808,87.2788882 105.515618,99.7311761 106,115 C106.156168,145.434464 106.044031,144.777175 111,148 C115.253097,151.108005 117.474261,151.670388 124,152 C131.248491,151.644409 136.728786,150.237966 143,147 C144.361674,146.011498 145.897527,145.434175 146,146 C146.325931,145.862418 146.611867,151.033162 147,157 L147,168 L144,169 C137.6271,172.209604 131.239531,174.24498 126,175 C119.740266,176.320337 103.301252,176.280165 98,175 C87.9063697,172.93794 77.3126689,165.724223 73,159 C72.4255687,156.703926 71.2813277,153.367849 71,151 C70.4419381,148.805314 69.9123003,133.812885 70,117 L69,87 L61,87 L53,87 L53,76 L53,65 L59,63 C66.1747437,59.1954735 71.6444195,54.4937795 76,48 C79.196231,43.1383738 82.7611624,33.5964485 84,28 L84,24 Z" id="Tumblr" fill="#009BCD"></path>
    </g>
</svg>