<?xml version="1.0" encoding="UTF-8" standalone="no"?>
<svg width="200px" height="200px" viewBox="0 0 200 200" version="1.1" xmlns="http://www.w3.org/2000/svg" xmlns:xlink="http://www.w3.org/1999/xlink">
    <!-- Generator: Sketch 3.7.2 (28276) - http://www.bohemiancoding.com/sketch -->
    <title>Twitch</title>
    <desc>Created with Sketch.</desc>
    <defs></defs>
    <g id="Page-1" stroke="none" stroke-width="1" fill="none" fill-rule="evenodd">
        <path d="M100,0 C44.7714,0 0,44.7714 0,100 C0,155.2286 44.7714,200 100,200 C155.2286,200 200,155.2286 200,100 C200,44.7714 155.2286,0 100,0 Z M48.2515912,37 L40,58.9135 L40,146.557 L70.2417758,146.557 L70.2417758,163 L86.7525497,163 L103.246875,146.557 L127.995322,146.557 L161,113.70124 L161,37 L48.2515912,37 Z M59,48 L150,48 L150,108.350584 L130.692895,127.555548 L100.365482,127.555548 L83.8316372,144 L83.8316372,127.555548 L59,127.555548 L59,48 Z M90,103 L101,103 L101,70 L90,70 L90,103 Z M120,103 L131,103 L131,70 L120,70 L120,103 Z" id="Twitch" fill="#009BCD"></path>
    </g>
</svg>