<?xml version="1.0" encoding="UTF-8" standalone="no"?>
<svg width="200px" height="200px" viewBox="0 0 200 200" version="1.1" xmlns="http://www.w3.org/2000/svg" xmlns:xlink="http://www.w3.org/1999/xlink">
    <!-- Generator: Sketch 3.7.2 (28276) - http://www.bohemiancoding.com/sketch -->
    <title>Vevo</title>
    <desc>Created with Sketch.</desc>
    <defs></defs>
    <g id="Page-1" stroke="none" stroke-width="1" fill="none" fill-rule="evenodd">
        <path d="M100,0 C44.771524,1.5158245e-14 0,44.771524 0,100 C-1.5158245e-14,155.228476 44.771524,200 100,200 C155.228476,200 200,155.228476 200,100 C200,44.771524 155.228476,-2.2737368e-14 100,0 Z M155.19,40.8215948 C132.826,40.8215948 128.565,53.8965948 121.901,63.4575948 C121.9,63.4635948 103.762,90.9045948 96.855,101.355595 L81.97,40.8215948 L42,40.8215948 L67.208,142.205595 C72.427,160.319595 87.273,159.163595 87.273,159.163595 C97.442,159.163595 105.055,153.814595 111.972,143.682595 L179.968,40.8215948 L155.19,40.8215948 Z" id="Vevo" fill="#009BCD"></path>
    </g>
</svg>