<?xml version="1.0" encoding="UTF-8" standalone="no"?>
<svg width="200px" height="200px" viewBox="0 0 200 200" version="1.1" xmlns="http://www.w3.org/2000/svg" xmlns:xlink="http://www.w3.org/1999/xlink">
    <!-- Generator: Sketch 3.7.2 (28276) - http://www.bohemiancoding.com/sketch -->
    <title>Vimeo</title>
    <desc>Created with Sketch.</desc>
    <defs></defs>
    <g id="Page-1" stroke="none" stroke-width="1" fill="none" fill-rule="evenodd">
        <path d="M100,0 C44.771524,2.2737368e-14 0,44.771526 0,100 C1.5158245e-14,155.228474 44.771524,200 100,200 C155.228476,200 200,155.228474 200,100 C200,44.771526 155.228476,-1.13686838e-14 100,0 L100,0 L100,0 Z M147,41 C147.821598,41.0071258 148.448717,41.0285277 149,41 C157.979494,41.7095097 164.444808,47.6184319 166,57 C166.6564,57.8337207 166.879944,60.7543288 167,64 C167.466376,77.0118901 159.385529,94.6025104 142,118 C139.707636,120.790117 137.552948,123.579213 137,124 C137.206409,123.851972 135.74164,125.642226 134,128 C129.5313,133.493366 118.291622,144.706046 113,149 C102.288351,156.926037 93.4587952,159.748669 87,157 C82.5357406,154.801796 76.8090432,147.661841 74,140 C72.4405497,136.951106 70.8350694,132.026041 69,126 C59.0320858,90.0000729 58.0633421,86.8380592 56,82 C54.3168515,79.1329925 52.6394743,76.5672052 51,75 C48.667923,72.7280029 47.2078385,72.8242447 42,76 C39.187155,77.4115362 36.9652379,78.6024505 37,79 C36.1403461,78.8241384 31,72.9252238 31,72 C31,71.2076468 55.8864043,49.9589892 60,47 C66.2137257,43.3497765 67.5585679,42.8327202 72,43 C74.7482676,42.335202 75.6381525,42.5050763 78,44 C79.4979155,44.389265 81.6810832,46.0463659 83,47 C86.6286881,51.5370357 87.5778201,54.0968884 90,68 C90.563312,68.3758791 91.5635612,73.8609255 93,80 C96.8190735,103.106167 99.5106258,111.925628 104,115 C106.672118,118.317648 110.853414,115.129593 118,104 C128.093725,89.2697478 130.906942,77.4081119 126,72 C124.14616,70.0472459 123.960961,69.9838743 120,70 C117.264257,69.6465602 114.602959,69.8367828 113,70 L109,71 L110,70 C110.30659,67.6502214 114.088984,60.148488 116,57 C120.504472,50.8207092 127.718639,44.7313644 133,43 C136.28392,41.7610639 142.535088,40.9615422 147,41 L147,41 L147,41 Z" id="Vimeo" fill="#009BCD"></path>
    </g>
</svg>