<?xml version="1.0" encoding="UTF-8" standalone="no"?>
<svg width="200px" height="200px" viewBox="0 0 200 200" version="1.1" xmlns="http://www.w3.org/2000/svg" xmlns:xlink="http://www.w3.org/1999/xlink">
    <!-- Generator: Sketch 3.7.2 (28276) - http://www.bohemiancoding.com/sketch -->
    <title>Vine</title>
    <desc>Created with Sketch.</desc>
    <defs></defs>
    <g id="Page-1" stroke="none" stroke-width="1" fill="none" fill-rule="evenodd">
        <path d="M100,0 C44.7714,0 0,44.7714 0,100 C0,155.2286 44.7714,200 100,200 C155.2286,200 200,155.2286 200,100 C200,44.7714 155.2286,0 100,0 Z M165,100 C161.180006,100.957986 157.485272,101.348532 154,101 C135.449501,101.348532 121.044968,88.2189691 121,65 C121.044968,54.1998246 125.350348,48.3809674 131,48 C137.231244,48.3809674 141.092684,53.6029001 141,64 C141.092684,70.2200754 139.48732,76.82095 138,81 C138.301487,80.7264096 144.067168,90.8324804 160,88 C163.180495,80.2632147 165,70.5921121 165,62 C165,39.2790254 153.417059,26 132,26 C110.354971,26 97.5838939,42.8605725 98,65 C97.5838939,87.116741 107.829952,106.021664 125,115 C117.621479,128.916264 108.581056,141.495639 99,151 C82.046948,130.195256 66.5827639,102.475285 60,48 L35,48 C46.6598475,138.473072 81.4072889,167.159691 91,173 C95.7920196,175.801677 100.266409,175.652677 105,173 C112.478418,168.703366 134.877538,146.201162 147,120 C152.503852,119.827742 158.765051,119.227115 165,118 L165,100 Z" id="Vine" fill="#009BCD"></path>
    </g>
</svg>