<?xml version="1.0" encoding="UTF-8" standalone="no"?>
<svg width="200px" height="200px" viewBox="0 0 200 200" version="1.1" xmlns="http://www.w3.org/2000/svg" xmlns:xlink="http://www.w3.org/1999/xlink">
    <!-- Generator: Sketch 3.7.2 (28276) - http://www.bohemiancoding.com/sketch -->
    <title>VK</title>
    <desc>Created with Sketch.</desc>
    <defs></defs>
    <g id="Page-1" stroke="none" stroke-width="1" fill="none" fill-rule="evenodd">
        <path d="M100,0 C44.7714,0 0,44.7714 0,100 C0,155.2286 44.7714,200 100,200 C155.2286,200 200,155.2286 200,100 C200,44.7714 155.2286,0 100,0 Z M107,140 C106.866163,139.664992 109.393201,139.385996 111,138 C111.872912,136.713068 111.834953,134.311236 112,134 C111.834953,134.311236 111.671282,123.064991 117,121 C122.02001,119.775804 128.616634,132.27827 136,137 C140.895395,140.722213 144.913218,139.926211 145,140 L164,140 C163.609651,139.664992 173.389475,139.060089 169,131 C168.372373,130.729227 166.050909,125.660886 155,115 C143.126643,104.348573 144.697784,106.111925 159,87 C167.419434,75.7779268 170.857507,68.7689609 170,66 C168.759365,62.9065935 162.433883,63.6621041 162,64 L141,64 C141.38345,63.7929606 139.821676,63.5796399 139,64 C137.533242,64.9514102 136.807076,66.5355135 137,67 C136.807076,66.5355135 133.474009,75.4194296 129,83 C119.658615,98.9187728 115.910454,99.7626732 114,99 C110.812503,96.4636102 111.703819,89.5030365 112,85 C111.703819,69.105731 114.043523,62.663645 107,61 C104.859717,60.4430363 103.174203,60.0771322 97,60 C89.8103825,59.940844 83.454335,60.0405911 80,62 C77.459645,62.9821446 75.6119395,65.5987791 77,66 C78.1296107,65.9355492 81.2797809,66.6016824 83,69 C85.1078046,71.8186561 85.031885,78.419745 85,78 C85.031885,78.419745 86.2717407,96.6077991 82,99 C79.2999557,100.415968 75.407351,97.252699 67,83 C62.7692036,75.379432 59.536212,67.1883142 60,67 C59.536212,67.1883142 58.9135728,65.6580348 58,65 C56.4521018,63.8462907 54.5674225,63.5317415 55,64 L35,64 C34.5631025,63.6625979 31.5608277,63.7465436 30,65 C29.4759968,66.2189891 30.3791441,68.624772 30,69 C30.3791441,68.624772 46.0392858,105.324812 64,124 C80.0354883,140.778012 98.4982462,139.664992 98,140 L107,140 Z" id="VK" fill="#009BCD"></path>
    </g>
</svg>