<?xml version="1.0" encoding="UTF-8" standalone="no"?>
<svg width="200px" height="200px" viewBox="0 0 200 200" version="1.1" xmlns="http://www.w3.org/2000/svg" xmlns:xlink="http://www.w3.org/1999/xlink">
    <!-- Generator: Sketch 3.7.2 (28276) - http://www.bohemiancoding.com/sketch -->
    <title>VSCO</title>
    <desc>Created with Sketch.</desc>
    <defs></defs>
    <g id="Page-1" stroke="none" stroke-width="1" fill="none" fill-rule="evenodd">
        <path d="M100,0 C44.7714,0 0,44.7714 0,100 C0,155.2286 44.7714,200 100,200 C155.2286,200 200,155.2286 200,100 C200,44.7714 155.2286,0 100,0 Z M130.001931,141 C127.185953,141 124.369976,139.926397 122.220956,137.779762 C117.926348,133.481346 117.926348,126.516366 122.220956,122.220238 C124.367688,120.073603 127.183093,119 129.998498,119 C132.814476,119 135.630453,120.073603 137.779473,122.220238 C142.073509,126.518082 142.073509,133.481346 137.779473,137.779762 C135.632741,139.926397 132.817336,141 130.001931,141 Z M100.003182,170 C97.1878041,170 94.3707104,168.925141 92.2211393,166.775995 C87.9265729,162.481708 87.9265729,155.513716 92.2194233,151.223433 C94.3672784,149.074287 97.1832281,148 99.9986058,148 C102.813983,148 105.629361,149.074287 107.776072,151.223433 C112.074643,155.518292 112.074643,162.48514 107.776072,166.779427 C105.631077,168.926285 102.817987,170 100.003182,170 Z M159.000572,111 C152.926637,110.997712 148,106.072092 148,99.9979982 C148,93.922761 152.924349,89 158.993137,89 L158.996568,89 C165.073935,89 170,93.9216171 170,100.002002 C170,106.073807 165.077939,110.997712 159.000572,111 Z M100.001573,111 C97.1862594,110.999428 94.3703738,109.925281 92.2219955,107.775842 C87.9263829,103.484401 87.9263829,96.515599 92.2197076,92.2218698 C94.3680858,90.0741473 97.1839714,89 99.999285,89 C102.814599,89 105.629912,90.0741473 107.776575,92.2218698 C112.074475,96.5190308 112.074475,103.484401 107.776575,107.77813 C105.629912,109.925853 102.815743,111 100.001573,111 Z M70.0040044,140 C67.1883614,140 64.3710022,138.925713 62.2212285,136.776567 C57.9268294,132.481708 57.9268294,125.513716 62.2177961,121.221717 C64.3652817,119.073715 67.1803527,118 69.9965677,118 C72.8127828,118 75.630142,119.074287 77.7787716,121.221717 C82.0748868,125.51772 82.0725986,132.48514 77.7787716,136.779999 C75.6324302,138.926857 72.8190754,140.000572 70.0040044,140 Z M129.003718,81 C122.925621,80.9965685 118.003432,76.0746354 118,69.9974264 C118.003432,63.9247927 122.922761,59 128.995138,59 L128.999714,59 C135.078383,59 140,63.9236488 140,70.0037175 C140,76.0746354 135.078383,80.9982842 129.003718,81 Z M71.0005363,82 C68.1848841,82 65.369804,80.9262851 63.2223115,78.7788554 C58.9261823,74.484568 58.9261823,67.5177202 63.2205953,63.2205726 C65.3686599,61.0737149 68.1848841,60 71.0005363,60 C73.8161885,60 76.6312686,61.0737149 78.7787612,63.2205726 C83.0737463,67.5177202 83.0737463,74.4822798 78.7787612,78.7788554 C76.6312686,80.9262851 73.8161885,82 71.0005363,82 Z M41.0013587,111 C38.1855144,111 35.369098,109.925601 33.222031,107.777376 C28.9267528,103.48207 28.9267528,96.512209 33.2174542,92.2214796 C35.3668096,90.0738265 38.1826539,89 40.9990703,89 C43.8149147,89 46.630759,90.0738265 48.7795423,92.2214796 C53.0742484,96.51793 53.0742484,103.483786 48.7749655,107.780809 C46.6296148,109.927317 43.8160589,111.000572 41.0013587,111 Z M99.999714,52 C93.9261926,51.9959967 89.0040036,47.0724758 89,40.9988562 C89.0040036,34.9235208 93.9261926,30 99.999714,30 C106.078383,30 111,34.9235208 111,41.0005719 C111,47.0741915 106.078383,51.9959967 99.999714,52 Z" id="VSCO" fill="#009BCD"></path>
    </g>
</svg>