<?xml version="1.0" encoding="UTF-8" standalone="no"?>
<svg width="200px" height="200px" viewBox="0 0 200 200" version="1.1" xmlns="http://www.w3.org/2000/svg" xmlns:xlink="http://www.w3.org/1999/xlink">
    <!-- Generator: Sketch 3.7.2 (28276) - http://www.bohemiancoding.com/sketch -->
    <title>Website</title>
    <desc>Created with Sketch.</desc>
    <defs></defs>
    <g id="Page-1" stroke="none" stroke-width="1" fill="none" fill-rule="evenodd">
        <path d="M100,0 C155.228338,0 200,44.771662 200,100 C200,155.228338 155.228338,200 100,200 C44.771662,200 0,155.228338 0,100 C0,44.771662 44.771662,0 100,0 Z M10,100 C10,126.542687 21.5748485,150.455403 40,167 L33,153 C25.1921386,152.691584 21.393984,135.738678 21,128 C21.393984,122.156937 18.9477556,117.323379 22,112 C11.1907313,101.078589 17.5958294,106.867247 18,100 C17.5958294,96.3611468 14.1531671,92.7739302 11,90 C10.1847025,93.2669464 10,96.5857643 10,100 Z M100,10 C95.7616268,10 91.2938679,10.3382105 87,11 C85.994524,13.0277895 85.3284992,15.2640526 85,17 C85.3284992,25.0001579 77.839031,10 70,25 C62.8596217,39.9998421 70.3495629,25.0001579 70,40 C70.3495629,47.5001579 59.5101033,42.0731579 63,44 C70.3495629,47.5001579 70.3495629,47.5001579 63,55 C62.8596217,55 47.8806854,47.5001579 48,55 C47.8806854,62.4998421 40.3907442,62.4998421 33,62 C25.4118079,62.4998421 32.9012761,77.5 25,77 C19.6531529,77.5 22.7496007,68.6321579 18,65 C15.7530288,69.0295789 14.1811534,73.7143158 13,79 C18.0476925,83.0814211 18.8929953,100.972474 25,108 C32.9012761,100 32.9012761,107.500316 40,108 C47.8806854,107.500316 47.8806854,107.500316 52,115 C59.1151241,115.000158 62.8596217,122.5 70,130 C77.839031,137.500158 92.8179673,137.500158 93,145 C92.8179673,152.499842 85.3284992,145 85,160 C85.3284992,167.5 85.3284992,167.5 78,168 C73.1234049,167.5 68.4073058,176.419947 66,183 C76.2505996,187.518368 87.9897603,190 100,190 C125.463118,190 148.20446,179.651421 165,163 L160,154 C160.2246,154.375158 169.58679,139.375 162,132 C154.60738,124.375316 154.60738,116.875 155,117 C154.60738,116.875 139.628444,131.875158 132,124 C124.649035,116.875 124.649035,124.374842 117,109 C109.669625,94.375 124.649035,86.8751579 125,87 C124.649035,86.8751579 124.649035,71.875 132,72 C139.628444,71.875 147.117912,56.8753158 162,72 C162.097322,71.875 170.753279,66.0965263 183,65 C179.158531,55.6764211 173.892773,47.4238947 167,40 C166.1403,41.1788421 164.379686,41.8751579 162,42 C154.60738,41.8751579 169.58679,56.8753158 162,57 C154.60738,56.8753158 154.60738,49.375 147,49 C139.628444,49.375 139.628444,56.8753158 132,64 C124.649035,71.875 132.138503,64.3751579 125,57 C117.159567,49.375 139.628444,56.8753158 132,49 C124.649035,41.8751579 139.628444,41.8751579 140,34 C139.628444,28.4926316 148.843049,27.2241053 153,27 C148.495373,23.8292105 143.885232,21.0832632 140,19 C147.117912,26.875 132.138503,34.3753158 125,34 C117.613674,34.3753158 123.795217,21.1401053 125,13 C116.853044,11.1562632 108.715053,10 100,10 Z" id="Website" fill="#009BCD"></path>
    </g>
</svg>