<?xml version="1.0" encoding="UTF-8" standalone="no"?>
<svg width="200px" height="200px" viewBox="0 0 200 200" version="1.1" xmlns="http://www.w3.org/2000/svg" xmlns:xlink="http://www.w3.org/1999/xlink">
    <!-- Generator: Sketch 3.7.2 (28276) - http://www.bohemiancoding.com/sketch -->
    <title>WordPress</title>
    <desc>Created with Sketch.</desc>
    <defs></defs>
    <g id="Page-1" stroke="none" stroke-width="1" fill="none" fill-rule="evenodd">
        <path d="M150,160 L114,53 C120.299382,52.655225 125.72127,52.0237097 126,52 C131.106691,51.3874992 130.471452,43.4900371 125,44 C125.083678,43.8046209 108.894477,45.0723467 98,45 C88.6232734,45.0723467 72.1211583,43.8046209 72,44 C66.731032,43.4900371 66.0993214,51.7056044 71,52 C71.487095,52.0237097 76.5854816,52.655225 82,53 L98,96 L76,161 L39,53 C45.2928693,52.655225 50.7088757,52.0237097 51,52 C56.0907674,51.3874992 55.4555278,43.4900371 50,44 C50.070107,43.8046209 33.8844353,45.0723467 23,45 C21.5572565,45.0723467 19.3468577,45.0265677 17,45 C34.8714095,17.8784549 65.588777,0 101,0 C126.527084,0 150.219171,9.92699713 168,26 C167.569449,26.1585824 167.149485,26.1045866 167,26 C156.888011,26.1045866 149.921549,34.6382592 150,44 C149.921549,52.0237097 154.674083,58.9774204 160,67 C163.540382,73.8379837 167.980002,82.3704824 168,95 C167.980002,103.235136 164.689695,113.141004 160,127 L150,160 Z M56,190 C22.8521071,173.755066 0,139.466103 0,100 C0,85.2596945 3.0896713,71.4650673 9,59 L56,190 Z M100,200 C90.2975468,200 80.8946895,198.564647 72,196 L102,109 L132,193 C132.490664,193.46521 132.737155,193.919406 133,194 C122.683609,197.995434 111.598541,200 100,200 Z M188,52 C195.533305,66.1993205 200,82.4943344 200,100 C200,136.608049 179.895138,168.71933 150,186 L181,98 C186.449605,83.7369656 188.359845,72.3643672 188,62 C188.359845,58.5816039 188.116035,55.175222 188,52 Z" id="WordPress" fill="#009BCD"></path>
    </g>
</svg>