<?xml version="1.0" encoding="UTF-8" standalone="no"?>
<svg width="200px" height="200px" viewBox="0 0 200 200" version="1.1" xmlns="http://www.w3.org/2000/svg" xmlns:xlink="http://www.w3.org/1999/xlink">
    <!-- Generator: Sketch 3.7.2 (28276) - http://www.bohemiancoding.com/sketch -->
    <title>Xbox</title>
    <desc>Created with Sketch.</desc>
    <defs></defs>
    <g id="Page-1" stroke="none" stroke-width="1" fill="none" fill-rule="evenodd">
        <path d="M166.783566,25.56782 C187.174027,43.8751432 200,70.4396983 200,100 C200,123.021273 192.220866,144.225583 179.147846,161.127682 C181.288723,124.162293 139.303895,72.1243406 127.142064,56.4779953 C127.423242,55.98682 127.709117,55.494184 128,55 C136.755613,43.5430454 151.645014,29.9102928 166.783566,25.56782 Z M149.333352,12.9959414 C134.77634,4.72400899 117.93986,0 100,0 C82.0733085,0 65.2483786,4.71707625 50.6987079,12.9777311 C70.9110796,13.2140684 89.1017616,22.4025255 100.499921,29.6791881 C111.714287,22.5176778 129.507592,13.5076033 149.333352,12.9959414 Z M100.499405,80.4483234 C96.6855739,83.8611604 93.1586553,86.9586559 90,90 C64.1891741,113.067459 31.1097823,144.048554 32,173 C29.4513181,170.760217 27.1785237,168.429776 25.0023474,166.148368 C43.3258806,186.907303 70.1339179,200 100,200 C126.761274,200 151.067269,189.48798 169.014053,172.367871 C169.409325,143.603716 136.625788,112.90039 111,90 C107.837475,86.9608916 104.309684,83.8656698 100.499405,80.4483234 Z M33.452831,25.3562466 C12.9251545,43.6701639 0,70.3256259 0,100 C0,123.661557 8.21786929,145.403676 21.9551744,162.527924 C18.6421797,125.492089 61.537427,72.3231383 73.8572966,56.4782809 C73.5763051,55.9870186 73.2906429,55.4942865 73,55 C64.0973002,43.3498377 48.8527923,29.4457063 33.452831,25.3562466 Z" id="Xbox" fill="#009BCD"></path>
    </g>
</svg>