<?xml version="1.0" encoding="UTF-8" standalone="no"?>
<svg width="200px" height="200px" viewBox="0 0 200 200" version="1.1" xmlns="http://www.w3.org/2000/svg" xmlns:xlink="http://www.w3.org/1999/xlink">
    <!-- Generator: Sketch 3.7.2 (28276) - http://www.bohemiancoding.com/sketch -->
    <title>Yelp</title>
    <desc>Created with Sketch.</desc>
    <defs></defs>
    <g id="Page-1" stroke="none" stroke-width="1" fill="none" fill-rule="evenodd">
        <path d="M100,0 C44.771524,3.03201907e-14 0,44.771524 0,100 C0,155.228476 44.771524,200 100,200 C155.228476,200 200,155.228476 200,100 C200,44.771524 155.228476,-3.41060513e-14 100,0 Z M48,98 C45.4523504,101.337077 44.4719547,113.176681 45,121 C45.5609924,123.627437 46.0256659,125.791395 47,127 C47.6317347,128.866703 49.1919906,129.928842 51,130 C52.1122346,130.051854 52.8216798,129.856093 74,123 C74.2804339,122.885395 83.8173671,119.808764 84,120 C86.2349784,119.17783 87.8345024,116.968899 88,114 C88.1434121,111.253456 86.6669284,108.699297 84,108 C84.229683,107.774721 77.5043519,105.00496 77,105 C54.4342932,95.394127 53.3963042,95.0171538 52,95 C50.4551172,94.9325001 48.8752272,95.8372359 48,98 Z M101,87 C100.5465,77.2146974 97.6175518,33.8692311 97,32 C96.7805212,30.0421867 95.3582283,28.7414401 93,28 C87.0538306,26.6755486 63.1055292,33.3877174 59,38 C57.2423608,39.4574283 56.7164156,41.2911379 57,43 C57.8460773,44.3517181 87.5138678,91.0690994 88,91 C91.8980626,98.1849482 95.4755444,97.0807648 97,97 C97.8126392,96.3525578 101.371667,95.2483743 101,87 Z M125,108 C149.928968,102.04989 150.886579,101.735614 152,101 C153.36307,100.081672 154.115859,98.3891105 154,96 C153.985517,96.2637544 153.997487,96.1918439 154,96 C153.349769,90.032839 142.696339,74.1965392 137,72 C135.587402,70.732848 133.72671,70.7914418 132,72 C131.223619,72.4520427 130.522701,73.3962015 117,92 C117.262439,91.5536138 111.274705,99.7207873 111,100 C109.622825,101.722297 109.596225,104.477537 111,107 C112.741713,109.286221 115.440316,110.479404 118,110 C117.918137,109.790927 117.819715,109.96804 118,110 C119.01141,109.541903 121.193967,109.003906 125,108 Z M137,161 C142.156221,158.369971 154.089399,143.26056 155,137 C155.222681,135.42493 154.585293,133.68017 153,133 C152.265834,131.878831 151.568939,131.613038 130,125 C129.903027,124.535312 120.399066,121.410271 120,121 C117.975139,120.464206 115.35021,121.287901 114,123 C111.748041,125.676117 111.474308,128.611682 113,131 L117,137 C129.622682,157.80549 130.606535,159.277878 132,160 C132.964342,161.118692 134.787907,161.298957 137,161 Z M100,169 C100.818657,167.641635 100.865305,166.897873 101,144 C100.930613,144.267009 100.982593,134.266958 101,134 C101.147861,131.716353 99.5391571,129.482439 97,128 C94.1945805,127.457461 91.2730563,128.090842 90,130 C89.6310317,130.103993 84.8382394,135.709803 85,136 C68.3793425,154.761149 67.6889458,155.641574 67,157 C67.0465303,157.427391 66.9479023,158.139616 67,159 C67.1251663,159.854473 67.5916505,160.85185 68,162 C72.1738586,166.250038 90.4653721,172.886077 96,172 C98.3369605,171.539158 99.8150492,170.413003 100,169 Z" id="Yelp" fill="#009BCD"></path>
    </g>
</svg>