<?xml version="1.0" encoding="UTF-8" standalone="no"?>
<svg width="200px" height="200px" viewBox="0 0 200 200" version="1.1" xmlns="http://www.w3.org/2000/svg" xmlns:xlink="http://www.w3.org/1999/xlink">
    <!-- Generator: Sketch 3.7.2 (28276) - http://www.bohemiancoding.com/sketch -->
    <title>YouTube</title>
    <desc>Created with Sketch.</desc>
    <defs></defs>
    <g id="Page-1" stroke="none" stroke-width="1" fill="none" fill-rule="evenodd">
        <path d="M100,0 C44.771524,1.5158245e-14 0,44.771524 0,100 C-1.5158245e-14,155.228476 44.771524,200 100,200 C155.228476,200 200,155.228476 200,100 C200,44.771524 155.228476,-2.2737368e-14 100,0 Z M163.190335,74.4721014 C163.190335,74.4721014 161.93972,65.6849593 158.101663,61.815391 C153.234292,56.7366529 147.778455,56.7114358 145.276475,56.4141992 C127.364746,55.1242599 100.496212,55.1242599 100.496212,55.1242599 L100.440573,55.1242599 C100.440573,55.1242599 73.5726656,55.1242599 55.6603097,56.4141992 C53.1582038,56.7114358 47.7043725,56.7366529 42.8352473,61.815391 C38.9974402,65.6849593 37.7485803,74.4721014 37.7485803,74.4721014 C37.7485803,74.4721014 36.4685176,84.7911166 36.4685176,95.110007 L36.4685176,104.78399 C36.4685176,115.102756 37.7485803,125.421646 37.7485803,125.421646 C37.7485803,125.421646 38.9974402,134.208913 42.8352473,138.078481 C47.7043725,143.157344 54.1002999,142.996679 56.9490189,143.528984 C67.1891442,144.507205 100.468518,144.809935 100.468518,144.809935 C100.468518,144.809935 127.364746,144.769612 145.276475,143.479798 C147.778455,143.182437 153.234292,143.157344 158.101663,138.078481 C161.93972,134.208913 163.190335,125.421646 163.190335,125.421646 C163.190335,125.421646 164.468518,115.102756 164.468518,104.78399 L164.468518,95.110007 C164.468518,84.7911166 163.190335,74.4721014 163.190335,74.4721014 Z M87.2539853,116.507046 L87.2480957,80.6788655 L121.834223,98.655374 L87.2539853,116.507046 Z" id="YouTube" fill="#009BCD"></path>
    </g>
</svg>