<?xml version="1.0" encoding="UTF-8" standalone="no"?>
<svg width="200px" height="200px" viewBox="0 0 200 200" version="1.1" xmlns="http://www.w3.org/2000/svg" xmlns:xlink="http://www.w3.org/1999/xlink">
    <!-- Generator: Sketch 3.7.2 (28276) - http://www.bohemiancoding.com/sketch -->
    <title>YouVersion</title>
    <desc>Created with Sketch.</desc>
    <defs></defs>
    <g id="Page-1" stroke="none" stroke-width="1" fill="none" fill-rule="evenodd">
        <path d="M100,0 C44.7714,0 0,44.7714 0,100 C0,155.2286 44.7714,200 100,200 C155.2286,200 200,155.2286 200,100 C200,44.7714 155.2286,0 100,0 Z M180,100 C180,84.9487249 173.614229,77 162,77 C149.407629,77 143,84.9487249 143,100 C143,115.035634 149.407629,123 162,123 C173.614229,123 180,115.035634 180,100 Z M21,100 C21,115.035634 27.398684,123 39,123 C47.9306563,123 58,119.017817 58,100 C58,84.9487249 51.601316,77 39,77 C27.398684,77 21,84.9487249 21,100 Z M100,180 C119.003807,180 123,169.951349 123,162 C123,153.05801 119.003807,143 100,143 C80.9836857,143 77,153.05801 77,162 C77,169.951349 80.9836857,180 100,180 Z M100,21 C80.9836857,21 77,31.0528891 77,39 C77,47.9283846 80.9836857,58 100,58 C119.003807,58 123,47.9283846 123,39 C123,31.0528891 119.003807,21 100,21 Z M44,67 C49.2915574,57.3418944 57.3303618,49.2909772 67,44 C66.7818563,42.1049045 66.611956,40.6268064 67,39 C66.611956,34.9188319 67.4205558,30.8116061 69,27 C50.1976927,35.1326844 35.1237546,50.2029951 27,69 C30.810173,67.4275552 34.9286838,66.6161737 39,67 C40.6234924,66.6161737 42.1022549,66.7922875 44,67 Z M134,44 C143.376416,49.3252886 151.237492,57.3683106 157,67 C158.262021,66.8247639 159.725977,66.6453305 161,67 C165.305003,66.6453305 169.300128,67.4449108 173,69 C165.074338,50.2035677 150.348661,35.1248688 132,27 C133.531618,30.8058762 134.331258,34.9265477 134,39 C134.331258,40.6306401 134.168254,42.1164743 134,44 Z M67,157 C57.3256476,151.714414 49.2765384,143.661428 44,134 C42.1078006,134.222272 40.6300344,134.392007 39,134 C34.9233418,134.392007 30.8107501,133.574764 27,132 C35.1182812,150.802874 50.1977841,165.877863 69,174 C67.4090433,170.180961 66.6041324,166.063314 67,162 C66.6041324,160.361473 66.7707741,158.890436 67,157 Z M157,134 C151.718591,143.628203 143.674363,151.690844 134,157 C134.232234,158.881762 134.3991,160.360857 134,162 C134.3991,166.069534 133.589955,170.18897 132,174 C150.79925,165.874419 165.883358,150.803387 174,132 C170.212444,133.554623 166.103748,134.357111 162,134 C160.408246,134.357111 158.912744,134.190319 157,134 Z" id="YouVersion" fill="#009BCD"></path>
    </g>
</svg>